<svg xmlns="http://www.w3.org/2000/svg" version="1.1" xmlns:xlink="http://www.w3.org/1999/xlink" xmlns:svgjs="http://svgjs.dev/svgjs" viewBox="0 0 7.280440169521655 3.124519117124308"><g transform="matrix(1,0,0,1,2.8917143095248106,1.049372058562154)"><g><path d=" M 0.8220750000000001 0.05674499999999982 Q 0.859905 0.07565999999999984 0.8664525000000001 0.11639999999999984 Q 0.8730000000000001 0.15713999999999984 0.8453550000000001 0.1906049999999998 Q 0.8264400000000001 0.21679499999999985 0.7966125000000001 0.21970499999999982 Q 0.766785 0.22261499999999979 0.73623 0.20806499999999983 Q 0.7013100000000001 0.1920599999999998 0.6627525000000001 0.18332999999999977 Q 0.624195 0.17459999999999976 0.5820000000000001 0.17459999999999976 Q 0.50343 0.17459999999999976 0.44159250000000005 0.19933499999999982 Q 0.379755 0.22406999999999977 0.33610500000000004 0.2699024999999998 Q 0.292455 0.31573499999999977 0.26990250000000005 0.37829999999999986 Q 0.24735000000000001 0.44086499999999984 0.24735000000000001 0.5165249999999998 Q 0.24735000000000001 0.6052799999999998 0.2728125 0.6707549999999998 Q 0.298275 0.7362299999999998 0.34338 0.7798799999999999 Q 0.388485 0.8235299999999999 0.449595 0.8446274999999999 Q 0.5107050000000001 0.8657249999999999 0.5820000000000001 0.8657249999999999 Q 0.6212850000000001 0.8657249999999999 0.6605700000000001 0.8584499999999999 Q 0.6998550000000001 0.8511749999999999 0.73623 0.8322599999999999 Q 0.766785 0.8177099999999998 0.7966125000000001 0.8220749999999999 Q 0.8264400000000001 0.8264399999999998 0.8468100000000001 0.8526299999999999 Q 0.8759100000000001 0.8890049999999998 0.8679075 0.9275624999999998 Q 0.859905 0.9661199999999999 0.8235300000000001 0.9835799999999999 Q 0.7857000000000001 1.002495 0.7456875000000001 1.0148624999999998 Q 0.705675 1.0272299999999999 0.664935 1.0337774999999998 Q 0.624195 1.040325 0.5820000000000001 1.040325 Q 0.47724000000000005 1.040325 0.3833925 1.0068599999999999 Q 0.28954500000000005 0.9733949999999999 0.21606750000000002 0.9079199999999998 Q 0.14259000000000002 0.8424449999999999 0.10039500000000001 0.7442324999999999 Q 0.0582 0.6460199999999998 0.0582 0.5165249999999998 Q 0.0582 0.4044899999999998 0.09675750000000001 0.30991499999999983 Q 0.13531500000000002 0.21533999999999975 0.20588250000000002 0.14622749999999984 Q 0.27645000000000003 0.07711499999999982 0.37248000000000003 0.0385574999999998 Q 0.46851000000000004 -2.220446049250313e-16 0.5820000000000001 -2.220446049250313e-16 Q 0.64602 -2.220446049250313e-16 0.70713 0.01454999999999984 Q 0.76824 0.029099999999999793 0.8220750000000001 0.05674499999999982 M 1.6368956030273438 0.23279999999999978 Q 1.6747256030273439 0.23279999999999978 1.6994606030273438 0.25753499999999985 Q 1.724195603027344 0.2822699999999998 1.724195603027344 0.3215549999999998 L 1.724195603027344 0.9370199999999999 Q 1.724195603027344 0.9748499999999999 1.6994606030273438 1.0003125 Q 1.6747256030273439 1.0257749999999999 1.6368956030273438 1.0257749999999999 Q 1.5990656030273438 1.0257749999999999 1.5743306030273438 1.0003125 Q 1.5495956030273437 0.9748499999999999 1.5495956030273437 0.9370199999999999 L 1.5495956030273437 0.8657249999999999 L 1.5816056030273438 0.8788199999999999 Q 1.5816056030273438 0.8977349999999998 1.5612356030273438 0.9246524999999999 Q 1.5408656030273438 0.9515699999999999 1.5059456030273437 0.9777599999999999 Q 1.4710256030273439 1.00395 1.4237381030273437 1.0221375 Q 1.3764506030273438 1.040325 1.3211606030273437 1.040325 Q 1.2207656030273437 1.040325 1.1392856030273437 0.9886724999999998 Q 1.0578056030273437 0.9370199999999999 1.0105181030273438 0.8460824999999998 Q 0.9632306030273438 0.7551449999999998 0.9632306030273438 0.6372899999999999 Q 0.9632306030273438 0.5179799999999999 1.0105181030273438 0.4270424999999999 Q 1.0578056030273437 0.33610499999999977 1.1378306030273437 0.2844524999999998 Q 1.2178556030273437 0.23279999999999978 1.3153406030273438 0.23279999999999978 Q 1.3779056030273438 0.23279999999999978 1.4302856030273436 0.2517149999999998 Q 1.482665603027344 0.2706299999999998 1.5212231030273438 0.29972999999999983 Q 1.5597806030273438 0.32882999999999984 1.5808781030273438 0.35865749999999985 Q 1.601975603027344 0.38848499999999986 1.601975603027344 0.40885499999999986 L 1.5495956030273437 0.4277699999999999 L 1.5495956030273437 0.3215549999999998 Q 1.5495956030273437 0.2837249999999998 1.5743306030273438 0.25826249999999984 Q 1.5990656030273438 0.23279999999999978 1.6368956030273438 0.23279999999999978 M 1.3429856030273437 0.8802749999999999 Q 1.407005603027344 0.8802749999999999 1.4550206030273438 0.8482649999999998 Q 1.5030356030273437 0.8162549999999998 1.5299531030273439 0.7609649999999999 Q 1.5568706030273438 0.7056749999999998 1.5568706030273438 0.6372899999999999 Q 1.5568706030273438 0.5674499999999998 1.5299531030273439 0.5121599999999998 Q 1.5030356030273437 0.4568699999999998 1.4550206030273438 0.4248599999999998 Q 1.407005603027344 0.3928499999999998 1.3429856030273437 0.3928499999999998 Q 1.2804206030273437 0.3928499999999998 1.2324056030273438 0.4248599999999998 Q 1.1843906030273437 0.4568699999999998 1.1574731030273437 0.5121599999999998 Q 1.1305556030273438 0.5674499999999998 1.1305556030273438 0.6372899999999999 Q 1.1305556030273438 0.7056749999999998 1.1574731030273437 0.7609649999999999 Q 1.1843906030273437 0.8162549999999998 1.2324056030273438 0.8482649999999998 Q 1.2804206030273437 0.8802749999999999 1.3429856030273437 0.8802749999999999 M 2.0006250000000003 1.0257749999999999 Q 1.962795 1.0257749999999999 1.9380600000000001 1.0003125 Q 1.9133250000000002 0.9748499999999999 1.9133250000000002 0.9370199999999999 L 1.9133250000000002 0.33610499999999977 Q 1.9133250000000002 0.29827499999999985 1.9380600000000001 0.2728124999999998 Q 1.962795 0.24734999999999985 2.0006250000000003 0.24734999999999985 Q 2.038455 0.24734999999999985 2.06319 0.2728124999999998 Q 2.0879250000000003 0.29827499999999985 2.0879250000000003 0.33610499999999977 L 2.0879250000000003 0.4728749999999998 L 2.07774 0.3753899999999998 Q 2.093745 0.34046999999999983 2.1192075 0.3135524999999998 Q 2.14467 0.28663499999999986 2.17668 0.26844749999999984 Q 2.2086900000000003 0.2502599999999998 2.2450650000000003 0.2415299999999998 Q 2.28144 0.23279999999999978 2.317815 0.23279999999999978 Q 2.361465 0.23279999999999978 2.3912925 0.25753499999999985 Q 2.42112 0.2822699999999998 2.42112 0.31573499999999977 Q 2.42112 0.3637499999999998 2.396385 0.3848474999999998 Q 2.3716500000000003 0.4059449999999998 2.34255 0.4059449999999998 Q 2.314905 0.4059449999999998 2.2923525000000002 0.3957599999999998 Q 2.2698 0.3855749999999998 2.2407000000000004 0.3855749999999998 Q 2.21451 0.3855749999999998 2.1875925 0.39794249999999987 Q 2.1606750000000003 0.41030999999999984 2.1381225 0.4364999999999998 Q 2.11557 0.4626899999999998 2.1017475 0.5012474999999998 Q 2.0879250000000003 0.5398049999999999 2.0879250000000003 0.5921849999999999 L 2.0879250000000003 0.9370199999999999 Q 2.0879250000000003 0.9748499999999999 2.06319 1.0003125 Q 2.038455 1.0257749999999999 2.0006250000000003 1.0257749999999999 M 2.5535555493164064 0.2618999999999998 L 2.898390549316406 0.2618999999999998 Q 2.9333105493164062 0.2618999999999998 2.956590549316406 0.28517999999999977 Q 2.979870549316406 0.30845999999999985 2.979870549316406 0.3433799999999998 Q 2.979870549316406 0.3768449999999999 2.956590549316406 0.39939749999999985 Q 2.9333105493164062 0.4219499999999998 2.898390549316406 0.4219499999999998 L 2.5535555493164064 0.4219499999999998 Q 2.5186355493164063 0.4219499999999998 2.495355549316406 0.39866999999999986 Q 2.4720755493164064 0.3753899999999998 2.4720755493164064 0.34046999999999983 Q 2.4720755493164064 0.30700499999999986 2.495355549316406 0.2844524999999998 Q 2.5186355493164063 0.2618999999999998 2.5535555493164064 0.2618999999999998 M 2.709240549316406 0.08002499999999979 Q 2.747070549316406 0.08002499999999979 2.7710780493164062 0.10548749999999985 Q 2.7950855493164064 0.1309499999999998 2.7950855493164064 0.16877999999999982 L 2.7950855493164064 0.8162549999999998 Q 2.7950855493164064 0.8366249999999998 2.8030880493164063 0.8497199999999998 Q 2.8110905493164062 0.8628149999999999 2.824913049316406 0.8686349999999998 Q 2.8387355493164064 0.8744549999999999 2.854740549316406 0.8744549999999999 Q 2.872200549316406 0.8744549999999999 2.8867505493164063 0.8679074999999998 Q 2.901300549316406 0.8613599999999999 2.9202155493164064 0.8613599999999999 Q 2.940585549316406 0.8613599999999999 2.957318049316406 0.8802749999999999 Q 2.9740505493164062 0.8991899999999999 2.9740505493164062 0.9326549999999999 Q 2.9740505493164062 0.9733949999999999 2.9296730493164063 0.9995849999999998 Q 2.8852955493164063 1.0257749999999999 2.8343705493164064 1.0257749999999999 Q 2.8038155493164063 1.0257749999999999 2.7667130493164063 1.0206825 Q 2.7296105493164062 1.0155899999999998 2.696873049316406 0.9959474999999999 Q 2.664135549316406 0.9763049999999999 2.6423105493164063 0.9355649999999999 Q 2.620485549316406 0.8948249999999999 2.620485549316406 0.8235299999999999 L 2.620485549316406 0.16877999999999982 Q 2.620485549316406 0.1309499999999998 2.6459480493164063 0.10548749999999985 Q 2.6714105493164064 0.08002499999999979 2.709240549316406 0.08002499999999979 M 3.851410576171875 0.005819999999999714 Q 3.884875576171875 0.005819999999999714 3.9088830761718754 0.03200999999999976 Q 3.932890576171875 0.05819999999999981 3.932890576171875 0.08729999999999982 Q 3.932890576171875 0.11494499999999985 3.9139755761718753 0.1396799999999998 L 3.621520576171875 0.5252549999999998 L 3.522580576171875 0.38993999999999984 L 3.780115576171875 0.04801499999999981 Q 3.810670576171875 0.005819999999999714 3.851410576171875 0.005819999999999714 M 3.202480576171875 0.002909999999999746 Q 3.244675576171875 0.002909999999999746 3.273775576171875 0.040739999999999776 L 3.9139755761718753 0.8919149999999999 Q 3.931435576171875 0.9151949999999999 3.931435576171875 0.9457499999999999 Q 3.931435576171875 0.9864899999999999 3.902335576171875 1.0097699999999998 Q 3.873235576171875 1.0330499999999998 3.844135576171875 1.0330499999999998 Q 3.801940576171875 1.0330499999999998 3.772840576171875 0.9952199999999999 L 3.132640576171875 0.14404499999999976 Q 3.113725576171875 0.12076499999999979 3.113725576171875 0.09166499999999977 Q 3.113725576171875 0.053834999999999744 3.142098076171875 0.0283724999999998 Q 3.170470576171875 0.002909999999999746 3.202480576171875 0.002909999999999746 M 3.1893855761718752 1.0330499999999998 Q 3.157375576171875 1.0330499999999998 3.134095576171875 1.0090424999999998 Q 3.110815576171875 0.9850349999999999 3.110815576171875 0.9559349999999999 Q 3.110815576171875 0.9239249999999999 3.132640576171875 0.8962799999999999 L 3.4280055761718753 0.4961549999999998 L 3.524035576171875 0.6372899999999999 L 3.262135576171875 0.9923099999999999 Q 3.233035576171875 1.0330499999999998 3.1893855761718752 1.0330499999999998" fill="#72237a" fill-rule="nonzero"></path></g><g></g><g clip-path="url(#SvgjsClipPath1002)"><g clip-path="url(#a2a4504b7-7c54-41ff-8e47-d64c79d508014a1c2dfd-f74a-4c6f-8ac1-fb36bf19eec9)"><path d=" M -0.6739469611863866 -0.044015067174570155 C -0.6630313933483727 -0.04053034224696128 -0.652505519492975 -0.0359259700673733 -0.6425373467186701 -0.030275442606242486 C -0.641657702234923 -0.02976634893967578 -0.6406557030088933 -0.02950721120880606 -0.6396395349915323 -0.02952600853887921 C -0.6367753502837934 -0.02955136716514939 -0.6343672900459911 -0.03168239392426664 -0.6339937983507282 -0.03452223565463475 L -0.5868627225587679 -0.3921022103292568 C -0.5790686082581895 -0.45125753937980206 -0.5584008820893476 -0.5069821258108619 -0.5286566766602163 -0.5490337040351374 C -0.4994953643945901 -0.5902692318305062 -0.46532117092282244 -0.6131519520206665 -0.4324459965011509 -0.6134517256476119 C -0.4290652161528228 -0.6134683797379977 -0.4256844358044951 -0.6132685306533675 -0.4223702718177109 -0.6128355243033354 C -0.3877131097247535 -0.6082556494472262 -0.3578689797533072 -0.5789277962777413 -0.3383670399114749 -0.5302478900798968 C -0.3187152132561697 -0.48118493980317756 -0.3124366211807037 -0.41966472991784143 -0.32069705001208604 -0.35702869597665315 L -0.35580387254546153 -0.09062986616456914 C -0.3560973010603785 -0.08833759952190856 -0.35499688834460263 -0.0860909235605326 -0.35300598536063843 -0.08491751316222196 C -0.3510139343719252 -0.08376808252931311 -0.3485306960106862 -0.08390531412296054 -0.3466774310140148 -0.08526724906032479 C -0.34181443662134603 -0.08888118667405465 -0.3365350899690309 -0.09186226885312221 -0.3309726237801569 -0.09417718741675551 C -0.33032418597452917 -0.09443475585686933 -0.32973072380814017 -0.09481344123923197 -0.3292239442896423 -0.0952930114726076 C -0.3235870650107975 -0.10059045497588393 -0.3171521433597748 -0.10496844970614339 -0.31015501079784213 -0.10826654788318613 C -0.30838967721694166 -0.10908259831209288 -0.30717392861877446 -0.11076466144106378 -0.306907463172601 -0.11271319001620839 L -0.2754978487048847 -0.35106653161851814 C -0.26538881584067253 -0.4277586178453653 -0.2742321378355599 -0.5015528923450743 -0.3003957138317328 -0.5588263091820183 C -0.3266925225509931 -0.6163994996459076 -0.3678947421655896 -0.651622900811984 -0.4164247615499619 -0.6580347256105369 C -0.4220020445478112 -0.6587551384018542 -0.4276219463776272 -0.6590945582153381 -0.4332453928396718 -0.659050625124074 C -0.47907744958153575 -0.6586509269548134 -0.5245597704252969 -0.6316046841681903 -0.5613153479068715 -0.582891469789574 C -0.5975546485864849 -0.5348610731167776 -0.6226856709787352 -0.46922730290613607 -0.6320619238659695 -0.3980643746873917 L -0.6778939806078335 -0.05024369697887876 C -0.6782668796132174 -0.04748416020602275 -0.6766015246692016 -0.04485613172896863 -0.6739469611863866 -0.044015067174570155" fill="#ebcf79" transform="matrix(1,0,0,1,0,0)" fill-rule="nonzero"></path></g><g clip-path="url(#a2a4504b7-7c54-41ff-8e47-d64c79d508014a1c2dfd-f74a-4c6f-8ac1-fb36bf19eec9)"><path d=" M -0.5394818354110196 -0.2990058450723458 C -0.547223013444337 -0.2982303754843742 -0.5548380141456284 -0.3013839759516731 -0.5597643725553267 -0.3074054527841933 C -0.5646907309650249 -0.31342692961671353 -0.5662734729936043 -0.3215157094541789 -0.5639800023686077 -0.32894989958610715 C -0.550340302342595 -0.3731165472893859 -0.5045248996911169 -0.3809273156803504 -0.46771935993838465 -0.3872059077558165 C -0.4286821720739482 -0.3938675439101571 -0.40981308766677804 -0.3989803496586136 -0.4054330618952995 -0.41701672954649105 C -0.40243532562584594 -0.4295072973358798 -0.38996141192684286 -0.4372181411845291 -0.3774375359566826 -0.43412048037276074 C -0.3714548174534493 -0.43267983035029045 -0.366290366214288 -0.428919609157532 -0.3630821354568208 -0.42366835706083994 C -0.3598739046993531 -0.41841710496414797 -0.35888516730752595 -0.41210574866061483 -0.3603337851304129 -0.406124954434144 C -0.3723413842986121 -0.35637918645160493 -0.42092136595414154 -0.34811875762022243 -0.45992524563780623 -0.3414571214658818 C -0.4938163195730141 -0.33567815210199126 -0.5147671652784158 -0.33101500679395274 -0.5196468137614703 -0.3152435831985512 C -0.5223925564632046 -0.3063354205063891 -0.5302068706598122 -0.2999383119071511 -0.5394818354110196 -0.2990058450723458" fill="#ebcf79" transform="matrix(1,0,0,1,0,0)" fill-rule="nonzero"></path></g><g clip-path="url(#a2a4504b7-7c54-41ff-8e47-d64c79d508014a1c2dfd-f74a-4c6f-8ac1-fb36bf19eec9)"><path d=" M -0.5542706676736562 -0.12143993337839487 C -0.5620118457069736 -0.12066446379042317 -0.569626846408265 -0.12381806425772213 -0.5745532048179633 -0.12983954109024232 C -0.5794795632276615 -0.13586101792276262 -0.5810623052562409 -0.14394979776022798 -0.5787688346312443 -0.15138398789215624 C -0.5651124805148457 -0.19555063559543495 -0.5193137319537537 -0.2033614039863994 -0.48250819220102104 -0.20963999606186556 C -0.4434710043365846 -0.2162683240354345 -0.4246019199294149 -0.22138112978389096 -0.42023854824832174 -0.23945081785254008 C -0.4182929201478873 -0.24751000280425917 -0.41219556161179316 -0.2539190165398196 -0.4042432886335492 -0.25626364556606296 C -0.3962910156553048 -0.25860827459230634 -0.387691967702116 -0.25653231397634013 -0.3816853229772863 -0.25081775800576006 C -0.37567867825245704 -0.24510320203518005 -0.3731769890007852 -0.23661822772358926 -0.3751226173697515 -0.22855904283669853 C -0.38713021656124846 -0.17881327475765402 -0.43569354412639205 -0.17051953774549988 -0.4747140779004426 -0.16389120977193083 C -0.5086051518356507 -0.15811224040804028 -0.5295559975410524 -0.15344909510000182 -0.5344189919337212 -0.1376776715046003 C -0.5371747799731648 -0.12876952532138308 -0.5449929632440131 -0.1223746187030299 -0.5542706676736562 -0.12143993337839487" fill="#ebcf79" transform="matrix(1,0,0,1,0,0)" fill-rule="nonzero"></path></g><g clip-path="url(#a2a4504b7-7c54-41ff-8e47-d64c79d508014a1c2dfd-f74a-4c6f-8ac1-fb36bf19eec9)"><path d=" M -0.5782692119196686 0.05705860737716384 C -0.5860100652134537 0.05783668663478991 -0.5936255824743073 0.05468289306972607 -0.5985498942923091 0.04865982324063256 C -0.6034742061103111 0.04263675341153894 -0.6050516430305013 0.03454637580822428 -0.6027507247868706 0.027114552863402586 C -0.5891276788512441 -0.01703544074949037 -0.5433289302901516 -0.024846209140454878 -0.5065233905374196 -0.031108147125535113 C -0.46746954858259704 -0.03776978327987579 -0.44860046417542687 -0.04288258902833231 -0.4442370924943342 -0.06095227709698137 C -0.44122270213449477 -0.07337622852482673 -0.42874878843549213 -0.08117034282540536 -0.41622491246533144 -0.07805602792325106 C -0.4037715203319765 -0.07504775814173836 -0.39611420110311757 -0.06251421030949655 -0.39912116163906175 -0.05006050198463441 C -0.4111287608072609 -0.0003147340020952516 -0.45970874246279037 0.007979003010058827 -0.4987292762368405 0.014640639164399505 C -0.5326203501720492 0.020419608528290056 -0.5535545417870649 0.02504944565555689 -0.5584341902701193 0.040820869250958514 C -0.5611722137707535 0.04973421886155438 -0.5689906868025818 0.05613473204881936 -0.5782692119196686 0.05705860737716384" fill="#ebcf79" transform="matrix(1,0,0,1,0,0)" fill-rule="nonzero"></path></g><g clip-path="url(#a2a4504b7-7c54-41ff-8e47-d64c79d508014a1c2dfd-f74a-4c6f-8ac1-fb36bf19eec9)"><path d=" M -0.9204774611681494 0.7963170255147354 C -0.9242451037660904 0.8019920181227596 -0.9301294096041615 0.8059208869544989 -0.9368151238366698 0.8072254547174684 L -1.1125490855881772 0.8421657363469852 C -1.1192257781265802 0.843454756219542 -1.126141813208593 0.8420799177849154 -1.1318178681646074 0.8383352955582395 C -1.1374951932649784 0.8345624301860215 -1.1414240945285503 0.8286720774519334 -1.1427262973673404 0.8219809787993329 L -1.2932792744554398 0.06471948895465562 L -1.4438155974531535 0.8219809787993329 C -1.4466283227504977 0.8358600019085674 -1.4601093111720775 0.8448721133078805 -1.4740094633227026 0.842165736346985 L -1.6497434250742096 0.8072254547174684 C -1.656455023499708 0.8058931274866004 -1.6622506469539844 0.8020127244266968 -1.6660644336523442 0.7963170255147354 C -1.669867000138128 0.7906586752749722 -1.6712519629853677 0.783715874508291 -1.6699115285314763 0.7770315888479193 L -1.4941942208703547 -0.10693422065231806 C -1.4913980062529708 -0.12081510472313506 -1.4779118804695504 -0.12982818326823575 -1.4640170090911917 -0.12710232410958433 L -1.2932792744554398 -0.09316128790321865 L -1.122541539819688 -0.12710232410958433 C -1.1086374341919145 -0.1298467986094568 -1.095136274277566 -0.12081622144820414 -1.0923643280405249 -0.10691756656193208 L -0.9166303662890176 0.7770482429383052 C -0.9152907831024946 0.783727198774683 -0.9166758511411508 0.7906645308990345 -0.9204774611681494 0.7963170255147354 M -1.4488451327496805 -0.07172747357662745 L -1.6145533320889052 0.7618763665967943 L -1.4891646855738276 0.7867908858140282 L -1.3234564862346032 -0.046812954359393255 Z M -1.137713416161199 -0.07172747357662745 L -1.2630854085858907 -0.046812954359393255 L -1.0973772092466663 0.7867908858140285 L -0.9720052168219746 0.7618763665967943 Z" fill="#3bbecb" transform="matrix(1,0,0,1,0,0)" fill-rule="nonzero"></path></g><g clip-path="url(#a2a4504b7-7c54-41ff-8e47-d64c79d508014a1c2dfd-f74a-4c6f-8ac1-fb36bf19eec9)"><path d=" M -1.224531189342644 0.6282772535214916 L -1.3620440136586218 0.6282772535214916 C -1.3639272215622533 0.6282691941535141 -1.3656972102190617 0.6273767605488949 -1.3668234750528045 0.6258674347106521 C -1.3679497398865474 0.6243581088724095 -1.3683013872745984 0.6224073034750517 -1.3677730207513545 0.6205997178536138 L -1.3600621769027053 0.5817457249834217 C -1.3595001865455676 0.5789521154300488 -1.3570495043130315 0.5769400496198134 -1.3541999370868856 0.5769326928619107 L -1.2323586118239944 0.5769326928619107 C -1.2295067171233773 0.5769335616279132 -1.2270524516482895 0.5789485693617211 -1.2264963720081747 0.5817457249834217 L -1.2186689495268244 0.621132648745961 C -1.218307098482463 0.6228897641971367 -1.2187579895307548 0.6247163227169059 -1.2198959455566356 0.6261032066234482 C -1.2210339015825167 0.6274900905299905 -1.2227372403700778 0.628288999622667 -1.224531189342644 0.6282772535214916" fill="#3bbecb" transform="matrix(1,0,0,1,0,0)" fill-rule="nonzero"></path></g><g clip-path="url(#a2a4504b7-7c54-41ff-8e47-d64c79d508014a1c2dfd-f74a-4c6f-8ac1-fb36bf19eec9)"><path d=" M -1.400198534732608 0.8202656074895902 C -1.4020817426362397 0.8202575481216128 -1.4038517312930479 0.8193651145169936 -1.4049779961267908 0.8178557886787508 C -1.4061042609605339 0.8163464628405082 -1.4064559083485848 0.8143956574431501 -1.405927541825341 0.8125880718217124 L -1.3982166979766915 0.7737340789515204 C -1.3976547076195538 0.7709404693981474 -1.395204025387018 0.768928403587912 -1.3923544581608718 0.7689210468300092 L -1.1941874366596223 0.7689210468300092 C -1.1913332016912774 0.7689153684107464 -1.188875310196856 0.7709333531888367 -1.1883251968438027 0.7737340789515204 L -1.1804977743624523 0.8131210027140596 C -1.1801551414384042 0.814875445484774 -1.1806132471896789 0.8166912676019269 -1.1817471432252358 0.8180732033952618 C -1.182881039260793 0.8194551391885971 -1.1845724394360504 0.820259027419405 -1.186360014178272 0.8202656074895902 L -1.4001818806422222 0.8202656074895902 Z" fill="#3bbecb" transform="matrix(1,0,0,1,0,0)" fill-rule="nonzero"></path></g><g clip-path="url(#a2a4504b7-7c54-41ff-8e47-d64c79d508014a1c2dfd-f74a-4c6f-8ac1-fb36bf19eec9)"><path d=" M -1.536961924981222 0.7321488152580486 C -1.5505446304925283 0.7321555510418405 -1.5627933282375288 0.723977820847332 -1.5679943166092447 0.711430324908503 C -1.5731953049809606 0.698882828969674 -1.570323859314668 0.684437737506894 -1.5607194349597768 0.674833313152003 C -1.5511150106048857 0.6652288887971118 -1.5366699191421054 0.662357443130819 -1.5241224232032766 0.6675584315025349 C -1.5115749272644474 0.672759419874251 -1.5033971970699391 0.6850081176192511 -1.5034039328537308 0.6985908231305575 C -1.5034222935775579 0.7171167798269265 -1.51843596828486 0.7321304545342255 -1.5369619249812256 0.7321488152580486" fill="#3bbecb" transform="matrix(1,0,0,1,0,0)" fill-rule="nonzero"></path></g><g clip-path="url(#a2a4504b7-7c54-41ff-8e47-d64c79d508014a1c2dfd-f74a-4c6f-8ac1-fb36bf19eec9)"><path d=" M -1.0512120706970856 0.6650494850934521 C -1.0326926067714075 0.6650678280065059 -1.0176816145619392 0.6800713705920489 -1.0176540785695942 0.6985908231305575 C -1.0176724392934213 0.7171167798269265 -1.0326861140007233 0.7321304545342253 -1.0512120706970889 0.7321488152580486 C -1.0697380273934511 0.7321304545342233 -1.0847517021007513 0.7171167798269231 -1.0847700628245767 0.6985908231305575 C -1.0847700628245767 0.6801047828022619 -1.0697147651157668 0.6650494850934521 -1.0512120706970856 0.6650494850934521" fill="#3bbecb" transform="matrix(1,0,0,1,0,0)" fill-rule="nonzero"></path></g><g clip-path="url(#a2a4504b7-7c54-41ff-8e47-d64c79d508014a1c2dfd-f74a-4c6f-8ac1-fb36bf19eec9)"><path d=" M -1.1705719364924847 0.9896043985329301 C -1.1664583761671794 0.938992617850327 -1.1235074770620679 0.8993558827319998 -1.0727957718371492 0.8993558827319998 C -1.0701144632850272 0.8993558827319998 -1.067433154732905 0.8994558072743148 -1.0647851543615547 0.8996723104493309 L -1.0557919455531948 0.9004050904263083 C -1.0298221929157478 0.9024478096991877 -1.0057469193128874 0.9147882612744522 -0.9889257726540002 0.9346792084403912 C -0.9720067618113828 0.9544854329476702 -0.9637078937362487 0.9802335106316484 -0.9658765115599812 1.0061918725572385 L -1.0029984790300448 1.4642626286200895 C -1.0070953852649644 1.514874409302693 -1.050046284370076 1.554527798511406 -1.1007746436853802 1.554527798511406 C -1.1034559522375025 1.554527798511406 -1.1061539148800104 1.554411219878705 -1.108785261160975 1.5541947167036891 L -1.117778469969335 1.5534619367267113 C -1.1437467251188576 1.5514271082428541 -1.167822929167072 1.5390921763058238 -1.1846446428685296 1.5192044728030147 C -1.201567917656256 1.499394059433714 -1.2098670672864835 1.4736391117011798 -1.207693903962548 1.4476751545957818 L -1.2036636140891719 1.4057568090945924 C -1.2037323955338262 1.395711659815432 -1.1981461305932621 1.3864814993132772 -1.1892149271185364 1.3818833084276352 C -1.1802837236438106 1.3772851175419936 -1.1695255883146094 1.3781004353452442 -1.1613893707918668 1.3839921005894995 C -1.1532531532691237 1.3898837658337553 -1.1491217391383994 1.3998503919510603 -1.1507036066621636 1.4097704448775832 L -1.1546339719932246 1.4519885640057173 C -1.155637408543505 1.4638728824597411 -1.1518409059688395 1.4756642316884814 -1.1440919327789805 1.4847305057043019 C -1.1363878971168209 1.4938403568362997 -1.1253595203272282 1.4994894764316213 -1.1134650605593992 1.500418658847774 L -1.1044718517510392 1.5011514388247513 C -1.0797640584322938 1.5030414997368355 -1.0581533300932238 1.4846571408849196 -1.0560584109993683 1.4599658733005403 L -1.018936443529305 1.0018951172376889 C -1.0179273457623195 0.9900101533930947 -1.021724535287821 0.9782166706014108 -1.029478482743549 0.9691531755391043 C -1.0372559429537418 0.9599934258268858 -1.0481310639757029 0.9544309596380114 -1.0601053549631303 0.953465022395632 L -1.06909856377149 0.9527155883282687 C -1.0938063570902354 0.9508255274161843 -1.1154170854293057 0.9692098862681005 -1.117512004523161 0.99390115385248 L -1.1426097187346398 1.2933916612612513 C -1.1424664337253096 1.3033094851267288 -1.147843743632729 1.3124860836168881 -1.1565661077726264 1.317208807897594 C -1.1652884719125236 1.3219315321783 -1.1759121430882034 1.3214186652939568 -1.1841390188549614 1.3158777018453436 C -1.192365894621719 1.3103367383967301 -1.1968342422388305 1.3006848323019384 -1.1957362670655065 1.29082693134183 L -1.1958694997885932 1.29082693134183 Z" fill="#3bbecb" transform="matrix(1,0,0,1,0,0)" fill-rule="nonzero"></path></g><g clip-path="url(#a2a4504b7-7c54-41ff-8e47-d64c79d508014a1c2dfd-f74a-4c6f-8ac1-fb36bf19eec9)"><path d=" M -1.5601610728887134 1.3200215517882279 C -1.5743503578974591 1.3200215517882279 -1.585941604806012 1.3089299275912507 -1.5867410011445329 1.2949404916671354 L -1.5867909634156905 1.2949404916671354 L -1.6117054826329245 1.0062085266476242 C -1.6138861695591196 0.9802437078038395 -1.6055861075926363 0.9544859287965812 -1.5886562215389057 0.934679208440391 C -1.5718345078374485 0.9147915049375821 -1.547758303789234 0.9024565730005518 -1.5217900486397111 0.900421744516694 L -1.512813493921737 0.8996723104493309 C -1.510148839460001 0.8994558072743146 -1.5074508768174928 0.8993558827319996 -1.5047862223557567 0.8993558827319996 C -1.4540578630404521 0.8993558827319996 -1.4111236180257265 0.9389926178503267 -1.407026711790807 0.9896043985329299 L -1.3699047443207437 1.4476751545957813 C -1.3677278206877364 1.4736395425352384 -1.3760274262258956 1.4993959050976606 -1.3929540054147622 1.5192044728030143 C -1.409768650602684 1.5391010763603359 -1.4338488289840496 1.5514380444625702 -1.4598201783139568 1.5534619367267113 L -1.468796733031931 1.5541947167036891 C -1.471466893937309 1.5544141062746801 -1.4741448471893601 1.554525224666881 -1.476824004597911 1.554527798511406 C -1.5275523639132158 1.554527798511406 -1.5704866089279415 1.514874409302693 -1.5746001692532468 1.4642626286200895 L -1.579080119567041 1.4088211617255895 C -1.5791467359285845 1.4082049603813127 -1.579213352290128 1.4075887590370364 -1.5792300063805138 1.4069725576927596 L -1.5793299309228288 1.4057568090945924 L -1.5792633145612855 1.4057568090945924 C -1.578756048905146 1.3914158960136986 -1.5669833057913007 1.380052214882681 -1.5526334240343087 1.380052214882681 C -1.5382835422773162 1.380052214882681 -1.526510799163471 1.3914158960136986 -1.5260035335073316 1.4057568090945924 L -1.5259369171457882 1.4057568090945924 L -1.5215402372839235 1.4599658733005398 C -1.5194279985276644 1.4846551674558421 -1.4978181269547968 1.5030324757088342 -1.4731101424418667 1.5011514388247513 L -1.4641502418142784 1.5004353129381593 C -1.4521592967364652 1.4994527216053943 -1.4412841757145038 1.493873601326134 -1.4334900614139254 1.4847305057043014 C -1.4257292552941183 1.4755874100824689 -1.4219820849573017 1.4639628549931443 -1.4229480221996813 1.4519885640057169 L -1.4600699896697449 0.9939178079428657 C -1.4621648008750632 0.969219539799659 -1.4837860419331832 0.95083256279253 -1.5085000845118013 0.9527322424186542 L -1.5174766392297756 0.9534483683052462 C -1.529371050518415 0.9543908951076909 -1.5403965172109997 0.9600445194095439 -1.5481035114493569 0.9691531755391043 C -1.555855161965363 0.9782187055588969 -1.5596572958289459 0.9900089187699448 -1.5586622047539866 1.0018951172376886 L -1.5337809937175244 1.2898276859186788 C -1.5336644150848233 1.2906603904379716 -1.53359779872328 1.2914930949572638 -1.5335644905425083 1.2923591076573284 L -1.5335478364521224 1.2923924158380997 L -1.5335644905425083 1.2923924158380997 L -1.5335311823617366 1.2933916612612513 C -1.5335403691657037 1.3080951367089673 -1.545457597440992 1.3200123649842577 -1.560161072888711 1.3200215517882279" fill="#3bbecb" transform="matrix(1,0,0,1,0,0)" fill-rule="nonzero"></path></g><g clip-path="url(#a2a4504b7-7c54-41ff-8e47-d64c79d508014a1c2dfd-f74a-4c6f-8ac1-fb36bf19eec9)"><path d=" M -1.9226706583175477 1.3200215517882279 C -1.9356889887937168 1.3200114889906986 -1.9467942740338673 1.3105962915486684 -1.9489341588560358 1.2977550329423442 L -2.0011946944868386 1.020048075758267 C -2.01113661318708 0.9667789532296227 -1.9760835693858059 0.9155143423058041 -1.922837199221406 0.9054512798132213 L -1.9139772231361332 0.9037692166842504 C -1.8606866681657563 0.8937691442618028 -1.809377083993404 0.9288552969957595 -1.7993637731007015 0.9821433660400685 L -1.714544490765559 1.4338356054851387 C -1.7096590171199688 1.4594231561362712 -1.7152185980714783 1.485901634993783 -1.7299828325532434 1.5073634145386738 C -1.7446277667359487 1.5289082974523622 -1.7672849193361662 1.5436972170691265 -1.7929019860309912 1.5484324014301842 L -1.8017453080258783 1.5501144645591554 C -1.8550450254178679 1.5601143697739563 -1.9063619580206193 1.5250208347222127 -1.9163754121516958 1.471723661112951 L -1.9278500804275476 1.4112526589219239 L -1.9278334263371617 1.4112526589219239 C -1.9300142989544657 1.4015483990727904 -1.9266089009285057 1.391437301246087 -1.9190015801519769 1.38502968583976 C -1.9113942593754483 1.3786220704334333 -1.9008514894610826 1.3769846830299346 -1.8916590723042435 1.3807831473784642 C -1.882466655147404 1.384581611726993 -1.8761549526334846 1.3931835560625592 -1.8752897711697996 1.4030921546328559 L -1.8751565384467126 1.4030755005424704 L -1.8640649142497354 1.4618977477852986 C -1.859486798600602 1.4863026686091843 -1.8359936947784312 1.5023772899486323 -1.8115878754439168 1.497803966657195 L -1.8027445534490294 1.4961385576186097 C -1.7910107644548559 1.4939590515587002 -1.780633008687229 1.4871844334088342 -1.7739163229911201 1.4773194354825971 C -1.7671381082040785 1.4674102517030154 -1.764623340555815 1.4554526148059739 -1.7668549886675189 1.4436448647224052 L -1.8516742710026617 0.9919692793677208 C -1.8538684371576344 0.9802482716233618 -1.8606317640340482 0.9698801557919057 -1.870474612415952 0.963148534635764 C -1.8803174607978557 0.9564169134796221 -1.8924324808167334 0.953873941542321 -1.9041513098084804 0.9560797145862105 L -1.9129946318033677 0.9577451236247956 C -1.9373842550354254 0.9623558503043328 -1.9534393485471346 0.9858387527400208 -1.9488841965848782 1.0102388165210001 L -1.8966236609540754 1.2878458491627625 L -1.8964404659598313 1.288795132314756 L -1.8963905036886737 1.2890615977609297 C -1.8951249167147526 1.2967767745476286 -1.8973114740655572 1.3046584970100041 -1.9023709742590542 1.3106189601657143 C -1.9074304744525512 1.3165794233214243 -1.91485236924741 1.3200171638113865 -1.9226706583175477 1.3200215517882279" fill="#3bbecb" transform="matrix(1,0,0,1,0,0)" fill-rule="nonzero"></path></g><g clip-path="url(#a2a4504b7-7c54-41ff-8e47-d64c79d508014a1c2dfd-f74a-4c6f-8ac1-fb36bf19eec9)"><path d=" M -0.7871947758101783 0.9821600201304546 C -0.7771731351169107 0.9288773897466795 -0.7258698343659395 0.8937955336969745 -0.6725813257747468 0.9037858707746365 L -0.6637213496894736 0.9054512798132215 C -0.6381054454280364 0.9101782750922602 -0.6154505977009841 0.9249696053795018 -0.6008188503021117 0.9465202667047317 C -0.5860505649269663 0.9679803685200661 -0.5804850989475139 0.994458312808085 -0.5853638544240412 1.0200480757582673 L -0.6701831367591842 1.4717236611129514 C -0.6788871763147943 1.5181261159042831 -0.7193819528597751 1.5517656703013838 -0.7665936660028796 1.551813181778512 C -0.7726724089937156 1.551813181778512 -0.7787844601653231 1.5512469427053932 -0.7847965867946156 1.5501144645591554 L -0.7936565628798888 1.54844905552057 C -0.8192749458846924 1.5437062733134232 -0.8419312943570065 1.5289118816561444 -0.8565757163576364 1.5073634145386743 C -0.8713434372742253 1.485903128824765 -0.8769033246214994 1.459423190703713 -0.8720140581453211 1.4338356054851387 L -0.8663350133237455 1.402925613728998 C -0.8654580265620404 1.3931843708537759 -0.8593148397024981 1.3847064841136425 -0.8503311185033462 1.3808394863181728 C -0.8413473973041941 1.3769724885227026 -0.8309671857039269 1.3783379611527695 -0.8232891582858854 1.3843967410218578 C -0.8156111308678442 1.3904555208909457 -0.8118694542659692 1.400233719323007 -0.8135415468005955 1.409870369419898 L -0.8135748549813673 1.4100369103237567 C -0.8136374766878625 1.4104327453866157 -0.8137096655322003 1.4108270075364615 -0.8137913581563834 1.4112193507411521 L -0.8197035602433609 1.4436615188127915 C -0.8219485867407867 1.455379025108349 -0.8194053203670091 1.4675075265417883 -0.8126422259197597 1.4773360895729835 C -0.8059289939807601 1.4872015458306387 -0.7955485739733501 1.493971906424726 -0.7838139954618502 1.4961385576186097 L -0.7749540193765772 1.4978039666571954 C -0.7505536156652326 1.502378001557283 -0.7270630209868427 1.4863125520073206 -0.7224769805707585 1.4619144018756849 L -0.6376576982356157 1.0102388165210003 C -0.6354401775074883 0.9985192962269946 -0.6379876514356022 0.9863993143854746 -0.6447356866496028 0.9765642457608081 C -0.6514449368572413 0.966694730038862 -0.6618272286959255 0.9599231485912163 -0.6735639171075121 0.9577617777151817 L -0.6824238931927851 0.9560797145862108 C -0.7068239166401202 0.9515166706822482 -0.730305898704283 0.9675887828506085 -0.7348842779082181 0.9919859334581069 L -0.792957091083683 1.29688902024228 C -0.7942035930320543 1.3065611882676074 -0.8006373307867904 1.3147783596763165 -0.80972800441164 1.3183088347808776 C -0.8188186780364892 1.3218393098854393 -0.8291120274915031 1.3201183088820154 -0.8365598210235821 1.3138226776252644 C -0.8440076145556612 1.3075270463685136 -0.8474184081677532 1.2976639142902873 -0.8454507839798875 1.2881123146089364 L -0.8456339789741318 1.2880790064281646 Z" fill="#3bbecb" transform="matrix(1,0,0,1,0,0)" fill-rule="nonzero"></path></g><g clip-path="url(#a2a4504b7-7c54-41ff-8e47-d64c79d508014a1c2dfd-f74a-4c6f-8ac1-fb36bf19eec9)"><path d=" M -0.8831223364326841 0.8202656074895902 C -0.8852333287796268 0.8202582665901632 -0.8871849038555653 0.8191412844799566 -0.8882604440855322 0.8173248165360121 C -0.8893359843154995 0.8155083485920678 -0.8893769789987411 0.8132601017756589 -0.8883683749042275 0.811405631404317 C -0.8823395941845491 0.8004305858400409 -0.8798747888074432 0.7880232885025813 -0.8812237701286971 0.7755493748035782 C -0.8814029448207792 0.7738614742663892 -0.8808582623101857 0.7721767252280307 -0.8797248787888279 0.7709131772126232 C -0.8785914952674698 0.7696496291972159 -0.876975637268383 0.7689257084236618 -0.8752782598609479 0.7689210468300092 L -0.2625076582039205 0.7689210468300092 L -0.2625076582039205 0.6282772535214916 L -0.9053055848266387 0.6282772535214916 C -0.9081574795272558 0.6282763847554891 -0.9106117450023434 0.6262613770216812 -0.9111678246424584 0.6234642213999806 L -0.9189952471238088 0.5840772976374411 C -0.9193378800478569 0.5823228548667272 -0.9188797742965822 0.5805070327495743 -0.917745878261025 0.5791250969562389 C -0.9166119822254681 0.5777431611629038 -0.9149205820502107 0.5769392729320961 -0.9131330073079889 0.5769326928619107 L -0.23682705082893696 0.5769326928619107 C -0.2226710740009632 0.5769326928619107 -0.2111464434539534 0.5884406693185342 -0.2111464434539534 0.6025966461465082 L -0.2111464434539534 0.7946016542049927 C -0.2111464434539534 0.8087576310329667 -0.2226710740009632 0.8202656074895902 -0.23682705082893696 0.8202656074895902 L -0.32104678591018887 0.8202656074895902 Z" fill="#3bbecb" transform="matrix(1,0,0,1,0,0)" fill-rule="nonzero"></path></g><g clip-path="url(#a2a4504b7-7c54-41ff-8e47-d64c79d508014a1c2dfd-f74a-4c6f-8ac1-fb36bf19eec9)"><path d=" M -2.349714843991557 0.5769160387715249 L -1.6734255416028911 0.5769160387715249 C -1.6716358536218912 0.5769165839269674 -1.6699405263452074 0.5777188328987923 -1.6688052974764715 0.5791023930825641 C -1.6676700686077357 0.5804859532663358 -1.6672143374575734 0.5823053067522299 -1.6675633017870712 0.5840606435470552 L -1.6753907242684214 0.6234475673095945 C -1.675940837621475 0.6262482930722781 -1.6783987291158966 0.6282662778503685 -1.6812529640842415 0.6282605994311057 L -2.3240508907069595 0.6282605994311057 L -2.3240508907069595 0.7689043927396233 L -1.711263634959546 0.7689043927396233 C -1.7095645217713613 0.7689038026693134 -1.7079454098861802 0.769626176155876 -1.706810871548551 0.7708910116135133 C -1.705676333210922 0.7721558470711503 -1.7051335412513557 0.7738436633050614 -1.705318124691797 0.7755327207131923 C -1.7066951062012272 0.7879382672202873 -1.7041746808370415 0.8004647230718529 -1.6981069035547232 0.811372323223545 C -1.6970807419281395 0.8132242166480124 -1.697110510084975 0.8154807155274073 -1.6981851671494952 0.8173048945573096 C -1.6992598242140156 0.8191290735872119 -1.7012190924011426 0.8202488688840335 -1.7033362879358807 0.8202489533992041 L -2.349714843991557 0.8202489533992041 C -2.363870820819531 0.8202489533992041 -2.3753954513665403 0.8087409769425806 -2.3753954513665403 0.7945850001146066 L -2.3753954513665403 0.602596646146508 C -2.3753954513665403 0.588440669318534 -2.363870820819531 0.5769160387715249 -2.349714843991557 0.5769160387715249" fill="#3bbecb" transform="matrix(1,0,0,1,0,0)" fill-rule="nonzero"></path></g><g clip-path="url(#a2a4504b7-7c54-41ff-8e47-d64c79d508014a1c2dfd-f74a-4c6f-8ac1-fb36bf19eec9)"><path d=" M -2.067361395589827 1.635400061425102 L -0.5191971533210529 1.635400061425102 L -0.3688939875887409 0.8804201819632864 L -0.31838213144845273 0.8804201819632864 L -0.4748972728946872 1.6651775750350049 C -0.4773346010695163 1.6766059712257642 -0.48741032741102996 1.6847885982615423 -0.49909566622532964 1.68482940169031 L -2.0874462285951645 1.68482940169031 C -2.099087437774875 1.68482940169031 -2.10926308700063 1.6765689728589273 -2.111661276016193 1.6651276127638472 L -2.2681431092816555 0.8804201819632864 L -2.217697869502911 0.8804201819632864 Z" fill="#3bbecb" transform="matrix(1,0,0,1,0,0)" fill-rule="nonzero"></path></g><g clip-path="url(#a2a4504b7-7c54-41ff-8e47-d64c79d508014a1c2dfd-f74a-4c6f-8ac1-fb36bf19eec9)"><path d=" M -1.9163421039709239 0.2719463356258083 C -1.9047175488815995 0.2719463356258083 -1.8952580255424356 0.28140585896497206 -1.8952580255424356 0.29303041405429664 C -1.8952580255424356 0.3046549691436211 -1.9047175488815995 0.3141144924827849 -1.9163421039709239 0.3141144924827849 C -1.951593943261585 0.3141603862063398 -1.9801571861221463 0.34273107905199773 -1.9801938865102793 0.37798292911252607 C -1.9806438487679499 0.3893015157102866 -1.9899504379092554 0.39824547927986376 -2.0012779649387675 0.39824547927986376 C -2.01260549196828 0.39824547927986376 -2.0219120811095856 0.3893015157102866 -2.022362043367256 0.37798292911252607 C -2.0222978118712547 0.319453662362279 -1.974871359910177 0.2720197604401672 -1.916342103970921 0.2719463356258083" fill="#57c035" transform="matrix(1,0,0,1,0,0)" fill-rule="nonzero"></path></g><g clip-path="url(#a2a4504b7-7c54-41ff-8e47-d64c79d508014a1c2dfd-f74a-4c6f-8ac1-fb36bf19eec9)"><path d=" M -0.8012841362766085 0.1581489360192836 C -0.7978034313859657 0.163161817225425 -0.7964877582454835 0.16920725203548914 -0.797553620030178 0.17518607048400991 L -0.8002016204015283 0.18985832411394532 C -0.8018014321097815 0.19896022841138417 -0.8087447264990852 0.20619197153172442 -0.8177740136152389 0.20816073599596674 C -0.8268033007313926 0.21012950046020895 -0.8361268783780045 0.2064446198104829 -0.8413705318353537 0.1988348788319193 C -0.8448325421391452 0.19387903268822293 -0.846169710970603 0.18774484562731975 -0.8450843939913986 0.18179774436719298 L -0.8424530477104342 0.1671254907372577 C -0.8408532360021808 0.15802358643981884 -0.833909941612877 0.15079184331947848 -0.8248806544967233 0.14882307885523627 C -0.8158513673805698 0.14685431439099406 -0.8065277897339578 0.1505391950407201 -0.8012841362766085 0.1581489360192836" fill="#ed1c24" transform="matrix(1,0,0,1,0,0)" fill-rule="nonzero"></path></g><g clip-path="url(#a2a4504b7-7c54-41ff-8e47-d64c79d508014a1c2dfd-f74a-4c6f-8ac1-fb36bf19eec9)"><path d=" M -0.8223682147050972 0.25903941557677335 C -0.8213178601385123 0.2530747965464343 -0.8179325007807186 0.24777520658019625 -0.8129621127090447 0.244314691111427 C -0.8079917246373709 0.24085417564265788 -0.8018466399915227 0.23951841874598323 -0.7958882109915928 0.24060333751963536 C -0.7835027106094825 0.24284966129855445 -0.7752666667310997 0.25468990521051516 -0.7774687870248409 0.2670833412331397 L -0.7801001333058055 0.281755594863075 C -0.7825977975179694 0.29387416342724626 -0.7942995875574312 0.3017933950103022 -0.8064781691366165 0.2996070324419321 C -0.8186567507158018 0.29742066987356197 -0.8268731865433567 0.2859256143588903 -0.8249995609860619 0.27369501511632277 Z" fill="#ed1c24" transform="matrix(1,0,0,1,0,0)" fill-rule="nonzero"></path></g><g clip-path="url(#a2a4504b7-7c54-41ff-8e47-d64c79d508014a1c2dfd-f74a-4c6f-8ac1-fb36bf19eec9)"><path d=" M -0.7522211859998897 0.2364231608327867 C -0.7506213742916366 0.22732125653534785 -0.7436780799023326 0.2200895134150075 -0.7346487927861791 0.21812074895076528 C -0.7256195056700256 0.21615198448652306 -0.7162959280234134 0.21983686513624912 -0.7110522745660641 0.2274466061148126 C -0.7075715696754215 0.232459487320954 -0.706255896534939 0.23852157622140402 -0.7073217583196336 0.24448374057953892 L -0.7099531046005982 0.2591559942094743 C -0.7115677239716038 0.26824713968033287 -0.7185098390295583 0.2754647767218287 -0.7275312918696419 0.2774318329842902 C -0.7365527447097255 0.27939888924675194 -0.7458693778156198 0.2757263433299787 -0.7511220160344234 0.2681325489274483 C -0.7546027209250665 0.2631363218116929 -0.7559350481559346 0.2570742329112429 -0.7548525322808544 0.251095414462722 Z" fill="#ed1c24" transform="matrix(1,0,0,1,0,0)" fill-rule="nonzero"></path></g><g clip-path="url(#a2a4504b7-7c54-41ff-8e47-d64c79d508014a1c2dfd-f74a-4c6f-8ac1-fb36bf19eec9)"><path d=" M -0.7354838251621088 0.1711724347010195 L -0.7381151714430734 0.18582803424056904 C -0.739704789556588 0.19493519393470538 -0.746643938465366 0.20217678668235606 -0.7556750414529232 0.20415325380058758 C -0.7647061444404804 0.2061297209188192 -0.7740357496108248 0.2024485634287757 -0.7792840828768988 0.19483789713931476 C -0.7827647877675417 0.18984167002355934 -0.7840804609080241 0.18377958112310921 -0.7830145991233295 0.17778410858420257 L -0.7803832528423649 0.16311185495426728 C -0.7791278153874299 0.15491664629817636 -0.773525624731733 0.1480474103873518 -0.7657503533508627 0.14516943834545482 C -0.7579750819699924 0.14229146630355782 -0.7492505349411007 0.14385774255058448 -0.7429618715535093 0.1492605456117453 C -0.736673208165918 0.1546633486729061 -0.7338102457269904 0.16305229307697933 -0.7354838251621088 0.1711724347010195" fill="#ed1c24" transform="matrix(1,0,0,1,0,0)" fill-rule="nonzero"></path></g><g clip-path="url(#a2a4504b7-7c54-41ff-8e47-d64c79d508014a1c2dfd-f74a-4c6f-8ac1-fb36bf19eec9)"><path d=" M -0.7627965333949056 0.10632140673851309 C -0.7643963451031588 0.11542331103595194 -0.7713396394924625 0.1226550541562923 -0.7803689266086162 0.12462381862053451 C -0.7893982137247697 0.12659258308477672 -0.7987217913713818 0.12290770243505067 -0.803965444828731 0.11529796145648719 C -0.8074461497193739 0.11030173434073165 -0.8087618228598563 0.10423964544028164 -0.8076959610751617 0.09826082699176075 L -0.8050646147941971 0.08358857336182546 C -0.8036247310165294 0.07556806299150332 -0.7980153321492909 0.06892497465561942 -0.7903494244977507 0.06616169548555828 C -0.7826835168462105 0.06339841631549736 -0.7741257341711951 0.064934754161592 -0.7678997104447942 0.07019198541501137 C -0.7616736867183933 0.07544921666843052 -0.7587253030752452 0.08362864282085414 -0.7601651871201565 0.09164915314319932 Z" fill="#ed1c24" transform="matrix(1,0,0,1,0,0)" fill-rule="nonzero"></path></g><g clip-path="url(#a2a4504b7-7c54-41ff-8e47-d64c79d508014a1c2dfd-f74a-4c6f-8ac1-fb36bf19eec9)"><path d=" M -0.6932157437628172 0.1263729315630785 C -0.694274383215743 0.1323333071935361 -0.697661644470011 0.1376272970408442 -0.7026297873777427 0.14108624936717062 C -0.7075979302854745 0.14454520169349705 -0.7137384229125903 0.14588468577492608 -0.7196957474763215 0.14480900962021648 C -0.7320759054161958 0.14255437661664494 -0.7403076430760744 0.13072032338047235 -0.7381151714430734 0.11832900590671214 L -0.7354838251621088 0.10365675227677684 C -0.7344252499316841 0.09770075933866518 -0.7310397574621579 0.09241096151737394 -0.7260747200669313 0.08895512051100452 C -0.7211096826717043 0.0854992795046352 -0.7149733906610651 0.08416157975823413 -0.7090204755389904 0.08523732831002484 C -0.6966305567626556 0.08746759873289356 -0.688383505678636 0.09930550674780547 -0.6905843974818526 0.1117006779331432 Z" fill="#ed1c24" transform="matrix(1,0,0,1,0,0)" fill-rule="nonzero"></path></g><g clip-path="url(#a2a4504b7-7c54-41ff-8e47-d64c79d508014a1c2dfd-f74a-4c6f-8ac1-fb36bf19eec9)"><path d=" M -0.8638702079466396 0.3774000359490215 C -0.856610551626662 0.3773567385462704 -0.8497714062852293 0.3808010907290935 -0.8454840921606592 0.38665971020355494 C -0.8418535004565435 0.39157266686738135 -0.8403712864122028 0.39758479349667364 -0.8412706072930389 0.403613574216352 L -0.8535613259977974 0.48520196301663954 C -0.8555111083808984 0.49761138595044363 -0.8670753691133661 0.506147265181726 -0.8795083988189543 0.504354166960369 C -0.8855004877912314 0.5034791600789412 -0.8908894696254426 0.50023256857303 -0.8944637719854494 0.4953443040616232 C -0.8980720457884099 0.4904872717950881 -0.8995836354009079 0.48438692800179317 -0.898660602762684 0.478407094139212 L -0.8863865381483111 0.3968187053389247 C -0.8847749673920244 0.3856358749992712 -0.8751684576930101 0.37735097092452974 -0.8638702079466396 0.3774000359490215" fill="#ed1c24" transform="matrix(1,0,0,1,0,0)" fill-rule="nonzero"></path></g><g clip-path="url(#a2a4504b7-7c54-41ff-8e47-d64c79d508014a1c2dfd-f74a-4c6f-8ac1-fb36bf19eec9)"><path d=" M -1.9323300307413416 0.1954041362124338 C -1.907248970620249 0.1954041362124338 -1.8826675332107317 0.2003170928762601 -1.8592019198570666 0.21000977348082583 C -1.872874928063851 0.1829468766038167 -1.890411685240153 0.1634782449427561 -1.91137918503594 0.15210350120921934 C -1.9163032795511152 0.14945445813670932 -1.9199618233076117 0.14494425337460215 -1.9215381801713096 0.13957962523905887 C -1.9240079270536565 0.13139712509454415 -1.9212849756354955 0.1225335274321675 -1.91464731737228 0.1171488778559544 C -1.9080096591090647 0.11176422827974108 -1.8987750624801227 0.11092753655222787 -1.891277697940217 0.11503149601031348 C -1.8801753939532162 0.12109463732801584 -1.8699035123515113 0.12856764110909258 -1.860717442082179 0.13726470667542556 C -1.8625827002053947 0.09308140488176098 -1.853323025950861 0.05624255694825697 -1.8331549224935946 0.027714100117293028 C -1.784941330826554 -0.04050105410315563 -1.6808865740957524 -0.046329985738203794 -1.6764732401435016 -0.046546488913219775 C -1.6668208829968094 -0.04695012900756046 -1.6581109011906663 -0.040792247133618065 -1.6552725830823127 -0.03155780756595328 C -1.654006872212988 -0.027327668607946998 -1.6246956731338889 0.07259687370716328 -1.6729925352528587 0.14091195246992705 C -1.710147810903694 0.19348891581806082 -1.7803947641512163 0.20896056578651712 -1.8114879509016015 0.21332393746761025 C -1.8102055859418908 0.21658813918323727 -1.8089898373437237 0.21991895726040755 -1.8078407051071 0.2232664294279637 C -1.7769473674413452 0.20503020045545617 -1.7425566707945612 0.1954041362124338 -1.7082492445997068 0.1954041362124338 C -1.6747079065626016 0.1954041362124338 -1.6424988957563644 0.2043806909304079 -1.6150862629812524 0.2213678631239766 C -1.6130522718744742 0.22263577721687167 -1.612012044597543 0.2250276373886685 -1.6124715707906736 0.22737998975326912 L -1.6189833201315418 0.26008862327108184 C -1.6193735740366817 0.26202434239547623 -1.620727845878562 0.2636254216341678 -1.622572021233894 0.2643313422372163 C -1.6244161965892263 0.26503726284026474 -1.6264934098724817 0.26474970080148763 -1.6280764534822167 0.26356932816172485 C -1.650409588689644 0.2468153132335581 -1.6788714291590645 0.2375722930694104 -1.708249244599707 0.2375722930694104 C -1.743156218048452 0.2375722930694104 -1.7773137574298339 0.2500961690395709 -1.8069913464974217 0.27379493965863777 L -1.8071578874012801 0.2739281723817246 L -1.8078740132878717 0.27444444918368605 L -1.8085568309936917 0.2749440718952616 C -1.8086215408540713 0.2749768831769205 -1.8086828962978019 0.27501592755020354 -1.808740025987936 0.2750606505279626 L -1.8093728814225984 0.27544369460683715 L -1.8103388186649778 0.2760099336799561 L -1.8110715986419552 0.2763763236684448 L -1.8111715231842704 0.2764262859396024 L -1.8114546427208298 0.27654286457230326 L -1.812670391318997 0.2770591413742647 L -1.8129035485843992 0.2771590659165798 C -1.8132950957084661 0.2772998691439513 -1.8136893154558016 0.2774331265233323 -1.8140859890017942 0.27755876408584024 L -1.814685536255685 0.2777419590800846 L -1.8148687312499296 0.2777919213512422 L -1.8155682030461353 0.2779584622551008 C -1.8157847062211514 0.27802507861664416 -1.8160012093961675 0.2780583867974159 -1.8162177125711834 0.27809169497818753 L -1.8189656374848489 0.27844143087629036 L -1.8195152224675821 0.2784747390570621 L -1.8202146942637878 0.27850804723783384 C -1.820720656828199 0.27851079750178065 -1.8212264466440522 0.2784885649824026 -1.8217302164889004 0.27844143087629036 C -1.822346417833177 0.27840812269551873 -1.8226961537312798 0.2783581604243611 -1.8231458141716979 0.2783081981532036 L -1.8234788959794148 0.278258235882046 L -1.8236787450640453 0.2782249277012744 C -1.8241284055044629 0.278158311339731 -1.8244115250410227 0.27809169497818753 -1.8246613363968103 0.27804173270703003 L -1.8251109968372283 0.27792515407432894 L -1.8275924563047203 0.27717572000696566 L -1.8281253871970673 0.2769925250127213 L -1.8285750476374854 0.27680933001847696 C -1.828857647546549 0.2767055306778402 -1.829130691669272 0.27657736711003145 -1.829391098066392 0.2764262859396024 L -1.8316893625396398 0.27512726688950595 L -1.8320390984377426 0.27491076371448986 C -1.8323088674207697 0.27474051595686855 -1.832570097264067 0.2745570992583831 -1.8328218406858778 0.2743611787317567 L -1.833338117487839 0.2739781346528821 L -1.8334880043013118 0.27386155602018114 C -1.8632322097304428 0.2501294772203425 -1.8974064032022104 0.2375722930694104 -1.9323300307413416 0.2375722930694104 C -1.9741651057906011 0.2375722930694104 -2.0119365827857125 0.2554754402342009 -2.035951781122111 0.28668520561728705 C -2.0611494198759046 0.31941049322548565 -2.0680442132956474 0.36374368183262273 -2.0553871046023997 0.4115409212400174 C -2.0474431034883485 0.44153493802493626 -2.0346361079816284 0.4757257855870898 -2.020246973888253 0.5053367582931343 C -2.0193704716412038 0.5071162284855697 -2.019476842029529 0.5092224843656046 -2.0205281614726984 0.510904595474676 C -2.021579480915868 0.5125867065837477 -2.0234261328850605 0.5136052864757408 -2.025409741907867 0.5135971871245166 L -2.0593008158430752 0.5135971871245166 C -2.0615537914609843 0.5136016117807267 -2.063600195398393 0.5122851353623936 -2.0645302002242323 0.5102330608665746 C -2.077496745163201 0.4818627978706962 -2.0880754231817065 0.4524608691810321 -2.0961563178669644 0.42233277181005024 C -2.1122441691796974 0.36159530417284813 -2.102734683569376 0.3042885791551322 -2.069376540526515 0.2609546359711461 C -2.037317416533751 0.21930275591613102 -1.9873551453761955 0.1954041362124338 -1.9323300307413416 0.1954041362124338 M -1.814352454447968 0.1710225478875469 C -1.7847581358323095 0.16640936485066604 -1.733380266991957 0.15330259571700078 -1.7074331941708003 0.11658032641619775 C -1.6814861213496433 0.07987471120578049 -1.6862658452903827 0.027064590592244753 -1.6917950032984854 -0.0023964953003270395 C -1.7213893219141438 0.002216687736554035 -1.7727671907544964 0.015323456870219299 -1.7987142635756532 0.05206238026140819 C -1.8246779904871961 0.0887846495622111 -1.8198816124560708 0.14157811608536108 -1.814352454447968 0.1710225478875469" fill="#57c035" transform="matrix(1,0,0,1,0,0)" fill-rule="nonzero"></path></g><g clip-path="url(#a2a4504b7-7c54-41ff-8e47-d64c79d508014a1c2dfd-f74a-4c6f-8ac1-fb36bf19eec9)"><path d=" M -2.099137400046032 0.21632167373706357 C -2.1007898349681304 0.21770878320732157 -2.1030814226477226 0.218049946541643 -2.1050662562233957 0.2172043405275138 C -2.1070490578484513 0.2163731150744671 -2.1083995513896925 0.21450171688160424 -2.1085636152044245 0.21235800022523088 L -2.108646885656354 0.21135875480207977 C -2.1090125744248067 0.20738642831614218 -2.109742879646028 0.20345615975918807 -2.1108285714969 0.19961762108005454 C -2.1124773264450996 0.19390526807770725 -2.1117945087392798 0.1879097955388006 -2.1089133511025273 0.18271371933841485 C -2.104427755230651 0.17450261061409678 -2.0952484581563113 0.17001643778940134 -2.086013976821981 0.17152217059912256 L -2.085664240923878 0.17158878696066593 L -2.0849314609469007 0.1717553278645244 C -2.0842819514218527 0.17188856058761115 -2.0835325173544894 0.17205510149146963 -2.0827164669255827 0.17232156693764333 C -2.082433347389023 0.17240483738957257 -2.0821502278524635 0.17252141602227355 -2.081633951050502 0.17272126510690378 L -2.0814840642370296 0.1727712273780614 C -2.0809344792542963 0.17300438464346335 -2.0802683156388624 0.17325419599925107 -2.0796521142945856 0.17357062371658227 L -2.078486327967576 0.17420347915124468 C -2.0775004369954377 0.174791748449173 -2.0765495520901283 0.17543679318026006 -2.0756384785115953 0.1761353536360034 C -2.075022277167319 0.1766183222571931 -2.0745060003653575 0.17710129087838278 -2.073906453111467 0.1776675299515018 L -2.073806528569152 0.1777674544938168 L -2.0732069813152614 0.17836700174770748 C -2.072657396332528 0.17894989491121238 -2.072224389982496 0.17953278807471718 -2.0717913836324637 0.18006571896706447 L -2.071275106830502 0.18074853667288437 L -2.071091911836258 0.18101500211905797 C -2.06975958460539 0.1829468766038167 -2.068760339182239 0.18507860017320577 -2.068110829657191 0.18731024828490994 C -2.0678943264821745 0.18805968235227322 -2.067694477397544 0.1888091164196366 -2.0675112824033 0.18957520457738575 L -2.0674280119513706 0.18994159456587445 C -2.0668068460995075 0.19244782621916956 -2.067938961046177 0.1950598745599792 -2.070192590955422 0.19632011118365578 C -2.0804333654291467 0.20208628708836218 -2.090122400916763 0.20878164475270455 -2.099137400046032 0.21632167373706357" fill="#72237a" transform="matrix(1,0,0,1,0,0)" fill-rule="nonzero"></path></g><g clip-path="url(#a2a4504b7-7c54-41ff-8e47-d64c79d508014a1c2dfd-f74a-4c6f-8ac1-fb36bf19eec9)"><path d=" M -2.4981527516006534 -0.13924315600087034 C -2.4943889271734507 -0.14508874172630426 -2.4880104105556695 -0.14858610070733314 -2.481015692593612 -0.14858610070733314 C -2.3603568077481163 -0.14655430168025918 -2.290909250839115 -0.08828163942016409 -2.2538872079113665 -0.039751620035792246 C -2.2137841582622353 0.012858651493113271 -2.2026259177037146 0.0643031366950092 -2.202176257263297 0.06645151435478414 C -2.2009248584200205 0.07245421103433147 -2.2024397294571076 0.07870142445193573 -2.2063016233568127 0.08346421166102036 C -2.210163517256518 0.0882269988701051 -2.2159628198294268 0.09100019186951058 -2.2220945493647752 0.09101629767391539 C -2.231604034975097 0.09101629767391539 -2.2399643883487945 0.08423808288687373 -2.2419628791950967 0.07496175454195442 C -2.2420628037374115 0.0744954400111505 -2.252471610228569 0.02919631416163382 -2.2862294514406902 -0.015070258083960009 C -2.326482387903294 -0.06783041642633825 -2.3820570875208813 -0.09844063455553376 -2.451487990339497 -0.10605155386186793 C -2.448933516061514 -0.09598525879729347 -2.4473112229493394 -0.08570516086310132 -2.446641650037214 -0.07534141119035731 C -2.4342510067901406 -0.08000455649839577 -2.4210276590237743 -0.08235278324280093 -2.4072880344554464 -0.08235278324280093 C -2.384755050163389 -0.08235278324280093 -2.361289436809724 -0.07612415343849233 -2.337574012100271 -0.06381678064334806 C -2.3327443258883744 -0.06131866708547018 -2.3291970046361876 -0.0570885281274639 -2.3275649037783745 -0.05190910601746401 C -2.32506669999445 -0.04407072161724512 -2.327541817074487 -0.035499441077322724 -2.3338339753349264 -0.030199437626645342 C -2.340126133595366 -0.02489943417596796 -2.3489933532570273 -0.023916850782158328 -2.3562932096939684 -0.02771071268682146 C -2.3746127091184053 -0.03720354420675698 -2.391699805854289 -0.04201657632826805 -2.4070715312804305 -0.04201657632826805 C -2.4249080620836776 -0.04201657632826805 -2.4409792593060247 -0.03578794652395956 -2.456167789737921 -0.022964296926853645 C -2.4599372827957136 -0.01995489851953769 -2.464634821891179 -0.018347845671089047 -2.469457753865831 -0.018417730251516162 C -2.473388119196892 -0.018417730251516162 -2.4770520190817793 -0.01941697567466738 -2.4800331012608465 -0.021282233797882633 C -2.4875371499411076 -0.025932567561610775 -2.491167977654886 -0.034905225288424546 -2.489009655978821 -0.0434654821918371 C -2.4889263855268915 -0.043831872180325915 -2.480682610785895 -0.08023771376379774 -2.4994018083795924 -0.11949140480325027 C -2.502449506920203 -0.12588657551141735 -2.501983192389399 -0.13326433755234957 -2.4981527516006534 -0.13924315600087034" fill="#72237a" transform="matrix(1,0,0,1,0,0)" fill-rule="nonzero"></path></g><g clip-path="url(#a2a4504b7-7c54-41ff-8e47-d64c79d508014a1c2dfd-f74a-4c6f-8ac1-fb36bf19eec9)"><path d=" M -2.1384910156278 0.517177816557475 L -2.151048199778732 0.517177816557475 C -2.153965805920431 0.5171805791353887 -2.1564222807614835 0.5149962501950944 -2.1567605527810794 0.5120983189897901 C -2.1571769050407257 0.5085343436472178 -2.1578597227465455 0.5051036010277326 -2.1587923518081533 0.5018727074928773 C -2.1609906917390855 0.4941951718249995 -2.1586258109042946 0.48620120843979064 -2.152630338365388 0.4810051322394049 C -2.1512002887452297 0.4797753389418207 -2.1492589112067932 0.479323248356766 -2.1474326797203838 0.4797947481223481 C -2.1456064482339743 0.48026624788793026 -2.1441265675552916 0.4816016451399501 -2.1434705886531695 0.483370013074196 C -2.1402476241737762 0.4920537556801652 -2.1368214913641985 0.5006607343752134 -2.1331950148850987 0.509183853172267 C -2.13243980508891 0.5109599338125861 -2.1326267395660023 0.5129965269814412 -2.1336926515912173 0.5146054507930866 C -2.134758563616433 0.5162143746047323 -2.136561042535387 0.5171806695808536 -2.1384910156278 0.517177816557475" fill="#72237a" transform="matrix(1,0,0,1,0,0)" fill-rule="nonzero"></path></g><g clip-path="url(#a2a4504b7-7c54-41ff-8e47-d64c79d508014a1c2dfd-f74a-4c6f-8ac1-fb36bf19eec9)"><path d=" M -2.382739905226701 0.3195437259485726 C -2.3912359944096075 0.3086906378437154 -2.397573376519383 0.2963098467461167 -2.401409140549241 0.2830712680035574 C -2.4092910271460357 0.255846900556159 -2.405956858115902 0.22660096105982497 -2.392149466294707 0.2018492691917586 C -2.3785026591410814 0.17700212835072238 -2.355478997361987 0.15865036876644822 -2.3282144133034226 0.15088775261105236 C -2.318753405966659 0.14821983235602532 -2.3089662742306243 0.1468857330701283 -2.2991363714897255 0.14692407909921956 C -2.2850803192040665 0.14692407909921967 -2.2711741537318804 0.14952211719941255 -2.2588001645751925 0.15448503613439624 C -2.244789205860407 0.13522569785586525 -2.224759411437594 0.12118491744712945 -2.201876483636352 0.11458183556989565 C -2.1924157430414697 0.1119126336905879 -2.182628430580134 0.11057850976974148 -2.1727984418226542 0.11061816205806296 C -2.1589968716353947 0.11057590522557104 -2.145311534239137 0.11314119968382896 -2.1324622349081217 0.11817911909323964 C -2.118441420751355 0.09893332864276616 -2.0984147017830117 0.08490056330362572 -2.0755385539692806 0.07829257261912481 C -2.065912489726258 0.07552799361507345 -2.0560033059466765 0.07412905002266179 -2.046060813986323 0.07412905002266179 C -2.021902095792663 0.07421899868558668 -1.9984815503326798 0.08246401656864255 -1.9795943392563888 0.09752804701478357 C -1.977166425556096 0.09944748769296119 -1.9766951609665468 0.10294515456852071 -1.9785284774716942 0.10543873994806297 C -1.9843827858146659 0.11336764457623782 -1.9876090108900568 0.12292984958308217 -1.987754843545456 0.13278475636163156 C -1.9877678004364987 0.13514796462760414 -1.9892305223491884 0.137260714993218 -1.9914379506977202 0.13810462332679707 C -1.9936453790462523 0.13894853166037613 -1.9961444809034918 0.1383504017343512 -1.9977306436865812 0.13659854305999164 C -2.0101845110459644 0.12309601697099792 -2.027692082137324 0.1153798958731862 -2.046060813986323 0.1152979614564873 C -2.0718626052809697 0.1152845957215275 -2.0952722362253557 0.1304086123717576 -2.1058656525619166 0.1539354511516633 C -2.108346922802486 0.1594430227481185 -2.1131238854756327 0.16358137402040007 -2.118928883468495 0.16525231543160523 C -2.1247338814613577 0.1669232568428105 -2.1309799423680764 0.1659578311424127 -2.136009556160308 0.16261223224269206 C -2.1520419800027693 0.15190648063772583 -2.1719780004526044 0.14881127941874162 -2.190501739902815 0.15415195432667939 C -2.209028393500464 0.15947270141162262 -2.2242784870558547 0.17267036624170706 -2.2322035822289874 0.19024136819282 C -2.2355160875803306 0.19756741499957153 -2.2427994350118405 0.20228629514956664 -2.2508395093707554 0.20231558372256253 C -2.254953069696061 0.20231558372256253 -2.2590499759309806 0.20109983512439533 -2.2623641399177647 0.19890149519346279 C -2.278400859660774 0.188205763491468 -2.2983347132250342 0.18511699094957312 -2.3168563236602715 0.1904578713678361 C -2.3336104298355655 0.19523350950418017 -2.3477573833565883 0.2065138908407823 -2.356143322880496 0.22178421538362303 C -2.3646315556600195 0.23699935150354112 -2.366682400429769 0.2549772246605826 -2.361839021792457 0.27171317836040654 C -2.357567565962164 0.28653505631849185 -2.3482246773331283 0.29938521228776516 -2.3354422885308823 0.30801909540156314 C -2.3346595462827473 0.3085187181131388 -2.3339434203961558 0.30906830309587197 -2.333027445424934 0.30981773716323513 C -2.317275455965634 0.31940598870866177 -2.2982379994298725 0.32198938483970363 -2.2805004443479575 0.31694568784837973 C -2.263674631319252 0.31214892250323356 -2.249452836809012 0.3008469608599661 -2.240980090085864 0.2855391359060825 C -2.2325073433627165 0.27023131095219877 -2.230481732912819 0.25217886850297233 -2.2353512053119133 0.23537395313847798 C -2.237105569676211 0.22923402569831253 -2.2358788793476623 0.22262672653168614 -2.2320375507922643 0.21752567779415188 C -2.2281962222368663 0.21242462905661763 -2.2221849434034153 0.20942034907200202 -2.2157993031989234 0.20941022622693528 C -2.206772786209792 0.20941022622693528 -2.1987455146438113 0.2154723151273853 -2.196247401085934 0.22414909621841395 C -2.191094919431487 0.2420719400650092 -2.1907274345703702 0.26103186211825113 -2.195181539301239 0.27914090267249636 L -2.193949136612686 0.2795905631129144 C -2.183469647604308 0.2832285330333375 -2.172237887141062 0.2841454114385005 -2.1613071194564166 0.28225521757465066 C -2.1592533597101586 0.28192233491819696 -2.157177878105561 0.282709367697922 -2.1558612319002433 0.28432032478249625 C -2.1545438854379992 0.28593320880202966 -2.1542118004650064 0.2881364648728477 -2.154995219200179 0.29006598596561506 C -2.158778568932252 0.29957818925095814 -2.161807852862249 0.3093732451937231 -2.164055044370082 0.31936053095432826 C -2.1646396033444044 0.3219258100968615 -2.1668875082742174 0.3237693662740557 -2.169517586016642 0.32384048126812237 C -2.184169462171143 0.32421323597425045 -2.198742150034698 0.32157756897442424 -2.2123352523986664 0.31609632923870135 C -2.226334363098197 0.3353855928115673 -2.2463745111659428 0.3494471064747795 -2.2692755874278934 0.35604949207435954 C -2.2958555318392997 0.363522703782555 -2.3242897290113644 0.3605123747318437 -2.348715598568406 0.34763917642950437 C -2.379100172118583 0.36068487547224093 -2.3950254169262064 0.3943056298621581 -2.385870874219241 0.42607994214686595 C -2.3777183717166537 0.45416411356345043 -2.352045123924098 0.47352582354378847 -2.322801833928021 0.47364402428885843 C -2.317938839535352 0.47364402428885843 -2.3130591910522975 0.4730777852157395 -2.308296121201944 0.4720119234310449 C -2.307513378953809 0.47182872843680057 -2.306730636705674 0.47169549571371383 -2.305698083101751 0.47159557117139883 L -2.3055148881075067 0.4715622629906271 L -2.3045322967747413 0.47131245163483926 C -2.2944066098201437 0.4683813317269292 -2.285380092831012 0.4632851800688589 -2.277752519434292 0.4561405752933283 C -2.271523889629983 0.45031164365828036 -2.266494354333456 0.44333357978660826 -2.262813800358183 0.43537292458217114 L -2.26226421537545 0.43420713825516155 L -2.2621975990139065 0.43410721371284655 C -2.256168818294228 0.42016774005988866 -2.255169572871077 0.4044296246452588 -2.2593830577386975 0.3897407169249374 C -2.260881925873424 0.384527986634166 -2.2602657245291478 0.3790321368068348 -2.257634378248183 0.3742690669564812 C -2.254070510191878 0.3677740145006687 -2.24723966707542 0.3637483539175361 -2.2398311556257076 0.3637769900133947 C -2.230821292726962 0.3637769900133947 -2.2227940211609813 0.3698390789138448 -2.2202959076031035 0.3784992059144876 C -2.215116303939972 0.396422359625753 -2.2147372575966617 0.4153919061704967 -2.2191967376376374 0.4335076664589559 C -2.2119094659930862 0.4362012273444025 -2.20419972121846 0.43757172330653415 -2.196430596080178 0.4375546104227179 C -2.1902019662758696 0.4375546104227179 -2.184073261013876 0.43668859772265356 -2.1782110211980563 0.43500653459368244 C -2.174547121313169 0.43395732689937394 -2.1708832214282814 0.43252507512619065 -2.1673025919953233 0.4307597415452904 C -2.165764284503214 0.42999707871685855 -2.163965510897321 0.42996234835999925 -2.162398910208015 0.43066506224944123 C -2.160832309518708 0.4313677761388832 -2.159662074815219 0.4327342838855479 -2.159208704067799 0.4343903332494059 C -2.15667728232915 0.44365000750393957 -2.1538294328731693 0.45305956857194585 -2.1507817343325586 0.4623692050976369 C -2.149866982938955 0.46519987169421273 -2.1512505823083976 0.46826252654844724 -2.153979319686642 0.4694471935116238 C -2.1673846417028946 0.4752304956069122 -2.181830965168606 0.4782115729482086 -2.196430596080178 0.4782072450545818 C -2.210124414421289 0.4782402695128567 -2.2236939841013026 0.4756100694706695 -2.2363837589158364 0.47046309302516076 C -2.2404077547652976 0.4760130828793694 -2.244952762687104 0.48116595075636215 -2.249956842580305 0.4858514725416878 C -2.2605805636758407 0.4957144058717644 -2.273088483546221 0.5033279223146045 -2.286729074152266 0.5082345700202724 C -2.2869577094999345 0.5095289968851635 -2.2871576077378966 0.5108283354319154 -2.2873286214061563 0.5121316271705616 C -2.287681660496389 0.5150100405613689 -2.2901243398111255 0.5171741687261786 -2.2930243203181178 0.517177816557475 L -2.3229350666511075 0.517177816557475 C -2.324824374496149 0.5171811540247739 -2.326593855673719 0.5162527994633024 -2.3276648283206893 0.514696357089983 C -2.3727974132663476 0.5126312498821373 -2.41293377109625 0.4809551699682475 -2.425440992976025 0.43743803179001683 C -2.4321266602789127 0.41402711282410265 -2.430628612730727 0.3890361549026078 -2.4211941999276325 0.36659153128860367 C -2.4131170905119688 0.34756748324197906 -2.3997760865238758 0.33124512019894614 -2.382739905226701 0.3195437259485726" fill="#72237a" transform="matrix(1,0,0,1,0,0)" fill-rule="nonzero"></path></g><g clip-path="url(#a2a4504b7-7c54-41ff-8e47-d64c79d508014a1c2dfd-f74a-4c6f-8ac1-fb36bf19eec9)"><path d=" M -0.22255449536826166 0.5041709719661247 L -0.25576275159765016 0.5041709719661247 C -0.25769984481202 0.5041669340021291 -0.259505294254208 0.5031898766528442 -0.2605681684697996 0.5015704184631578 C -0.26163104268539117 0.4999509602734711 -0.2618091034613861 0.4979058238202876 -0.26104209824996527 0.49612704630975846 L -0.24298906427170186 0.4544085498931998 C -0.2255022693665576 0.41398907252673767 -0.2359610381288726 0.393288038177124 -0.2544803866379395 0.3628776691325588 C -0.29161900819838893 0.30184042786841214 -0.2857068061114112 0.2821219848515638 -0.25726161973237716 0.2163549819178353 L -0.1944090826161724 0.07108135148205086 C -0.19052423299561783 0.06211678309725177 -0.1809703887901386 0.05701541686325662 -0.17135982152215368 0.05877397868690637 L -0.16336585813694482 0.04028793835861111 C -0.17118685988293203 0.03445674922227693 -0.1739956120221402 0.02402719164653966 -0.17016072701437235 0.015056991424045707 L -0.16901159477774863 0.012392336962309458 L -0.2465530396142741 -0.021165655165181763 L -0.2477188259412837 -0.018501000703445403 C -0.25159170798523567 -0.009532470619632472 -0.2611411900859486 -0.004422841729880167 -0.27075143294491655 -0.0061769738179151545 L -0.2787620504205113 0.012309066510380218 C -0.27100124430070416 0.018021419512727288 -0.26807012439279454 0.028563458726971414 -0.2719505274526979 0.03754001344494551 L -0.3348030645689022 0.1827969897903441 C -0.363264905038323 0.2485639927240726 -0.373590441077551 0.26636721534654806 -0.44350431251735634 0.28108943124764096 C -0.4783613236949438 0.2884172310174157 -0.5006111884504421 0.2949622885390555 -0.5180813292652005 0.3353817659055175 L -0.5896106474724334 0.5007069211658675 C -0.5905248441413098 0.502808837120478 -0.5925978766375108 0.504169060335651 -0.5948899941247485 0.5041709719661247 L -0.6263495708636224 0.5041709719661247 C -0.6280565285134834 0.5041850936429528 -0.629680351687028 0.5034350931897744 -0.6307763241515931 0.5021263731291463 C -0.6318722966161585 0.5008176530685182 -0.6323255535708321 0.4990873754862364 -0.6320119615948117 0.4974094112694689 L -0.6307795589062588 0.4904979637593403 C -0.6307026611724991 0.4900623298375426 -0.6305740713351666 0.48963742428809587 -0.6303965148273842 0.4892322528900155 L -0.556618894418061 0.3187110214292801 C -0.5296226139025957 0.2563081447534936 -0.4848564189454261 0.24688192959510158 -0.45214778542761325 0.2400037902657447 C -0.40060337568340243 0.22914532333416948 -0.39905454527751827 0.2255980020819831 -0.37334062972176296 0.16612624531410658 L -0.3185986346234686 0.039638428833562944 C -0.3264309474635527 0.03381545841397027 -0.32924791090530103 0.023380985029499812 -0.325410157591282 0.014407481898997543 L -0.3011618019894815 -0.04163353224939348 C -0.29727695236892737 -0.050598100634192456 -0.28772310816344815 -0.05569946686818761 -0.2781125408954632 -0.05394090504453786 L -0.2767469054838232 -0.05710518221784955 C -0.2745367750197256 -0.06221383946711123 -0.2703874637339263 -0.06623507787646865 -0.2652120459954568 -0.06828400608192187 C -0.26003662825698726 -0.07033293428737508 -0.2542591884003169 -0.07024165891329837 -0.24915107771446676 -0.06803026551096836 L -0.13307206772508096 -0.017801528907239628 C -0.12792595379585237 -0.015586534885921322 -0.12396228028401968 -0.011489628651001893 -0.12189717307617398 -0.006276898360230265 C -0.11982935340756873 -0.0011017152960437482 -0.11991931610711415 0.004685885041351701 -0.12214698443196159 0.00979429886211669 L -0.12351261984360162 0.012941921945042623 C -0.11575181372379495 0.018670929037775674 -0.11282069381588489 0.0292129682520198 -0.1167177509661741 0.03818952296999378 L -0.14094945247758828 0.09421388302799893 C -0.14482380171526543 0.1031894245050875 -0.15438288146336365 0.10830049315652757 -0.16399871357160745 0.10653790991352918 L -0.2187407086699018 0.23305903457484478 C -0.24445462422565667 0.29249748316194946 -0.2459868005411554 0.29604480441413583 -0.21859082185642897 0.3410774648174788 C -0.20123725967437167 0.36962257573882873 -0.1774718726937614 0.4087097258744228 -0.2044681532092265 0.4710792943694373 L -0.217275148715947 0.5007069211658675 C -0.21818934538482315 0.502808837120478 -0.2202623778810242 0.504169060335651 -0.22255449536826166 0.5041709719661247" fill="#a6262c" transform="matrix(1,0,0,1,0,0)" fill-rule="nonzero"></path></g><g clip-path="url(#a2a4504b7-7c54-41ff-8e47-d64c79d508014a1c2dfd-f74a-4c6f-8ac1-fb36bf19eec9)"><path d=" M -0.4460190801656201 0.3036224155396984 L -0.41499250977677793 0.2981099116219814 C -0.40357344089997715 0.2960863955906514 -0.39267607270918603 0.3037029960743275 -0.39065255667785603 0.31512206495112893 C -0.3886290406465256 0.3265411338279305 -0.3962456411302022 0.33743850201872105 -0.4076647100070039 0.33946201805005116 L -0.4386746263054593 0.34495786787738236 C -0.44641877833488053 0.34634015737940804 -0.45372992401426915 0.34763917642950437 -0.46387226505925305 0.3711047897831694 L -0.5199465873884155 0.5007069211658675 C -0.5208607840572919 0.502808837120478 -0.5229338165534931 0.5041690603356508 -0.5252259340407308 0.5041709719661247 L -0.5554531080910516 0.5041709719661247 C -0.5581883318044534 0.5041691311641827 -0.560543074580804 0.502239356758712 -0.5610821906414694 0.49955778892924374 C -0.5619482033415337 0.49532764997123735 -0.5614985429011159 0.49101424056130183 -0.559783171591373 0.487067221139855 L -0.502393176121728 0.3544340453069319 C -0.4855558907416322 0.31551343607519644 -0.4644551582227576 0.30690327134571116 -0.4460190801656201 0.3036224155396984" fill="#a6262c" transform="matrix(1,0,0,1,0,0)" fill-rule="nonzero"></path></g><g clip-path="url(#a2a4504b7-7c54-41ff-8e47-d64c79d508014a1c2dfd-f74a-4c6f-8ac1-fb36bf19eec9)"><path d=" M -0.6385903272972235 0.06382016807381952 C -0.6197212428900534 0.1048891549653298 -0.6143586257858091 0.15553424382870484 -0.6235017214076417 0.20642914404786772 L -0.6731975271190234 0.48345328352612515 C -0.6732844597458532 0.4838864603966493 -0.6734127280818984 0.4843103035940164 -0.6735805711978979 0.48471899439544996 L -0.677527590619345 0.4938287818365108 C -0.6784452348943921 0.4959277900579391 -0.6805161147788021 0.49728660083382925 -0.6828069372716599 0.49729283263676805 L -0.7151824889817555 0.49729283263676805 C -0.7169809136247853 0.49730230095674144 -0.7186794083649046 0.49646671366794637 -0.7197694451446914 0.49503624498095866 C -0.7208594819244785 0.4936057762939712 -0.7212145347536789 0.4917464678236292 -0.7207283010802441 0.4900149951381505 L -0.6939485237397944 0.34079434528091923 C -0.7210613828879611 0.3654090908712082 -0.7515716764748415 0.37838262728178673 -0.7825316305021397 0.37838262728178673 C -0.789026725752622 0.37838262728178673 -0.7955551291838758 0.3777997341182817 -0.801933645801657 0.37666725597204387 C -0.8388391100967045 0.3700389279984748 -0.8701821082028773 0.3448246351542954 -0.8906999475582467 0.3054044032109844 L -0.9129997745849021 0.42962726339905233 C -0.9134751583228216 0.4323499894196712 -0.9158316757458314 0.43434180771769126 -0.9185955489545481 0.43435702506863394 C -0.9213656214962749 0.43439908635726887 -0.9237665658090406 0.4324474415650208 -0.9242912478665097 0.42972718794136755 L -0.9425108227486312 0.3381130367287972 C -0.9426494419191993 0.337404128742708 -0.9426550891895664 0.3366756308653527 -0.9425274768390173 0.3359646590690222 L -0.9100520005866064 0.15498465884597168 C -0.8924652811391469 0.05694202874446275 -0.8240835860148399 -0.016985478478332983 -0.7510220914921084 -0.016985478478332983 C -0.7445103421512405 -0.016985478478332983 -0.7379819387199864 -0.01640258531482819 -0.7316034221022052 -0.01525345307820436 C -0.6917668378992481 -0.008108848302673999 -0.6587417766641039 0.019969948087872003 -0.6385903272972235 0.06382016807381952 M -0.7396640018489575 0.02964597460205176 C -0.7433945180953883 0.028979810986617616 -0.7472249588841342 0.028630075088514895 -0.7510220914921084 0.028630075088514895 C -0.7750372898285065 0.028630075088514895 -0.7999684631361266 0.04223646693375571 -0.821252390649245 0.06695113706635969 C -0.8429693245123957 0.09218208400092498 -0.8585575531135528 0.126306315201535 -0.8651525729063501 0.16304523859272402 C -0.8723304858626522 0.20303170960915395 -0.8685166991642923 0.2429682183544264 -0.8544439927882475 0.27551031096838063 C -0.84070436821992 0.3072363531534281 -0.8191872834413993 0.32722126161645015 -0.7938730660549049 0.3317678282917875 C -0.790142549808474 0.3324339919072218 -0.7863287631101139 0.33276707371493874 -0.7825316305021397 0.33276707371493874 C -0.7585164321657416 0.33276707371493874 -0.7335852588581218 0.3191606818696978 -0.7123013313450031 0.29444601173709395 C -0.6905843974818526 0.26921506480252855 -0.6749795147903095 0.2350908336019184 -0.6683844949975122 0.19835191021072962 C -0.660890154323879 0.15655014334224182 -0.665037022829956 0.11554777281227491 -0.6800423582676085 0.08287244747523381 C -0.693781982835936 0.05297835523262995 -0.7149493317163536 0.03407596264468826 -0.7396640018489573 0.02964597460205176" fill="#ed1c24" transform="matrix(1,0,0,1,0,0)" fill-rule="nonzero"></path></g></g></g><defs><clipPath id="SvgjsClipPath1002"><path d=" M -2.5013966526529665 -0.6590544016903097 h 2.3863966526529663 v 2.3438838033806193 h -2.3863966526529663 Z"></path></clipPath><clipPath id="a2a4504b7-7c54-41ff-8e47-d64c79d508014a1c2dfd-f74a-4c6f-8ac1-fb36bf19eec9"><path d=" M -2.5014002992258946 1.68482940169031 L -0.11500237965643123 1.68482940169031 L -0.11500237965643123 -0.6590506251240742 L -2.5014002992258946 -0.6590506251240742 Z"></path></clipPath></defs></svg>