<svg xmlns="http://www.w3.org/2000/svg" version="1.1" xmlns:xlink="http://www.w3.org/1999/xlink" xmlns:svgjs="http://svgjs.dev/svgjs" viewBox="0 0 5.034399763409169 5.924115209478629"><g transform="matrix(1,0,0,1,1.1774189949858347,4.77112167192157)"><g><path d=" M 0.5517225 0.03808349999999994 Q 0.5771115 0.05077799999999999 0.58150575 0.07811999999999997 Q 0.5859 0.10546199999999994 0.5673465 0.12792150000000002 Q 0.554652 0.14549849999999998 0.53463375 0.14745149999999996 Q 0.5146155 0.14940449999999994 0.494109 0.13963950000000003 Q 0.470673 0.12889799999999996 0.44479575000000005 0.12303900000000001 Q 0.4189185 0.11717999999999995 0.3906 0.11717999999999995 Q 0.33786900000000003 0.11717999999999995 0.29636775000000004 0.13378049999999997 Q 0.2548665 0.150381 0.2255715 0.18114074999999996 Q 0.19627650000000002 0.2119005 0.18114075000000002 0.25389 Q 0.166005 0.29587949999999996 0.166005 0.3466575 Q 0.166005 0.406224 0.18309375 0.4501665 Q 0.2001825 0.494109 0.23045400000000002 0.523404 Q 0.2607255 0.552699 0.3017385 0.56685825 Q 0.34275150000000004 0.5810175 0.3906 0.5810175 Q 0.41696550000000004 0.5810175 0.44333100000000003 0.576135 Q 0.4696965 0.5712524999999999 0.494109 0.558558 Q 0.5146155 0.548793 0.53463375 0.5517225 Q 0.554652 0.554652 0.568323 0.572229 Q 0.5878530000000001 0.5966415 0.58248225 0.62251875 Q 0.5771115 0.648396 0.552699 0.660114 Q 0.5273100000000001 0.6728085 0.50045625 0.68110875 Q 0.47360250000000004 0.689409 0.4462605 0.69380325 Q 0.4189185 0.6981975 0.3906 0.6981975 Q 0.320292 0.6981975 0.25730775 0.675738 Q 0.1943235 0.6532785 0.14501025 0.609336 Q 0.095697 0.5653935 0.06737850000000001 0.49947975 Q 0.039060000000000004 0.433566 0.039060000000000004 0.3466575 Q 0.039060000000000004 0.27146699999999996 0.06493725 0.20799449999999997 Q 0.0908145 0.14452199999999993 0.13817475 0.09813824999999998 Q 0.185535 0.051754499999999926 0.249984 0.025877249999999963 Q 0.314433 0 0.3906 0 Q 0.433566 0 0.47457900000000003 0.009765000000000024 Q 0.515592 0.019529999999999936 0.5517225 0.03808349999999994 M 1.0975998273925782 0.15623999999999993 Q 1.122988827392578 0.15623999999999993 1.1395893273925781 0.17284049999999995 Q 1.1561898273925781 0.18944099999999997 1.1561898273925781 0.21580649999999996 L 1.1561898273925781 0.628866 Q 1.1561898273925781 0.654255 1.1395893273925781 0.67134375 Q 1.122988827392578 0.6884325 1.0975998273925782 0.6884325 Q 1.0722108273925781 0.6884325 1.055610327392578 0.67134375 Q 1.039009827392578 0.654255 1.039009827392578 0.628866 L 1.039009827392578 0.5810175 L 1.0604928273925782 0.589806 Q 1.0604928273925782 0.6025005 1.0468218273925782 0.62056575 Q 1.033150827392578 0.638631 1.0097148273925782 0.656208 Q 0.9862788273925782 0.673785 0.9545425773925782 0.68599125 Q 0.9228063273925782 0.6981975 0.8856993273925782 0.6981975 Q 0.8183208273925782 0.6981975 0.7636368273925781 0.66353175 Q 0.7089528273925781 0.628866 0.6772165773925781 0.56783475 Q 0.6454803273925781 0.5068035 0.6454803273925781 0.427707 Q 0.6454803273925781 0.347634 0.6772165773925781 0.28660274999999996 Q 0.7089528273925781 0.22557149999999998 0.7626603273925782 0.19090574999999999 Q 0.8163678273925781 0.15623999999999993 0.8817933273925782 0.15623999999999993 Q 0.9237828273925781 0.15623999999999993 0.9589368273925781 0.1689345 Q 0.9940908273925781 0.18162899999999993 1.019968077392578 0.20115899999999998 Q 1.045845327392578 0.22068899999999997 1.0600045773925781 0.24070724999999998 Q 1.0741638273925782 0.2607255 1.0741638273925782 0.2743965 L 1.039009827392578 0.287091 L 1.039009827392578 0.21580649999999996 Q 1.039009827392578 0.19041749999999996 1.055610327392578 0.17332875000000003 Q 1.0722108273925781 0.15623999999999993 1.0975998273925782 0.15623999999999993 M 0.9003468273925781 0.5907825 Q 0.9433128273925782 0.5907825 0.9755373273925781 0.5692995 Q 1.0077618273925781 0.5478164999999999 1.0258270773925782 0.5107094999999999 Q 1.0438923273925782 0.4736025 1.0438923273925782 0.427707 Q 1.0438923273925782 0.380835 1.0258270773925782 0.343728 Q 1.0077618273925781 0.306621 0.9755373273925781 0.285138 Q 0.9433128273925782 0.263655 0.9003468273925781 0.263655 Q 0.8583573273925782 0.263655 0.8261328273925781 0.285138 Q 0.7939083273925781 0.306621 0.7758430773925782 0.343728 Q 0.7577778273925782 0.380835 0.7577778273925782 0.427707 Q 0.7577778273925782 0.4736025 0.7758430773925782 0.5107094999999999 Q 0.7939083273925781 0.5478164999999999 0.8261328273925781 0.5692995 Q 0.8583573273925782 0.5907825 0.9003468273925781 0.5907825 M 1.3407345 0.6884325 Q 1.3153455 0.6884325 1.298745 0.67134375 Q 1.2821445 0.654255 1.2821445 0.628866 L 1.2821445 0.22557149999999998 Q 1.2821445 0.20018249999999999 1.298745 0.18309374999999994 Q 1.3153455 0.16600499999999996 1.3407345 0.16600499999999996 Q 1.3661235 0.16600499999999996 1.382724 0.18309374999999994 Q 1.3993245 0.20018249999999999 1.3993245 0.22557149999999998 L 1.3993245 0.3173625 L 1.3924889999999999 0.25193699999999997 Q 1.4032305 0.22850099999999995 1.42031925 0.21043574999999998 Q 1.437408 0.1923705 1.458891 0.18016425000000003 Q 1.4803739999999999 0.16795799999999994 1.5047865 0.162099 Q 1.529199 0.15623999999999993 1.5536115 0.15623999999999993 Q 1.5829065 0.15623999999999993 1.6029247500000001 0.17284049999999995 Q 1.622943 0.18944099999999997 1.622943 0.2119005 Q 1.622943 0.24412499999999998 1.6063425 0.25828425 Q 1.589742 0.2724435 1.570212 0.2724435 Q 1.5516585 0.2724435 1.53652275 0.26560799999999996 Q 1.521387 0.25877249999999996 1.501857 0.25877249999999996 Q 1.48428 0.25877249999999996 1.46621475 0.26707274999999997 Q 1.4481495 0.275373 1.43301375 0.29295 Q 1.417878 0.310527 1.40860125 0.33640424999999996 Q 1.3993245 0.3622815 1.3993245 0.3974355 L 1.3993245 0.628866 Q 1.3993245 0.654255 1.382724 0.67134375 Q 1.3661235 0.6884325 1.3407345 0.6884325 M 1.710848502685547 0.17576999999999998 L 1.9422790026855468 0.17576999999999998 Q 1.9657150026855468 0.17576999999999998 1.9813390026855469 0.19139399999999995 Q 1.996963002685547 0.20701799999999998 1.996963002685547 0.230454 Q 1.996963002685547 0.25291349999999996 1.9813390026855469 0.26804924999999996 Q 1.9657150026855468 0.28318499999999996 1.9422790026855468 0.28318499999999996 L 1.710848502685547 0.28318499999999996 Q 1.6874125026855469 0.28318499999999996 1.6717885026855468 0.267561 Q 1.6561645026855467 0.25193699999999997 1.6561645026855467 0.22850099999999995 Q 1.6561645026855467 0.2060415 1.6717885026855468 0.19090574999999999 Q 1.6874125026855469 0.17576999999999998 1.710848502685547 0.17576999999999998 M 1.815334002685547 0.05370750000000002 Q 1.8407230026855468 0.05370750000000002 1.8568352526855467 0.07079625 Q 1.8729475026855469 0.08788499999999999 1.8729475026855469 0.11327399999999999 L 1.8729475026855469 0.5478164999999999 Q 1.8729475026855469 0.5614875 1.8783182526855469 0.570276 Q 1.8836890026855468 0.5790645 1.8929657526855468 0.5829705000000001 Q 1.9022425026855467 0.5868765 1.9129840026855467 0.5868765 Q 1.9247020026855468 0.5868765 1.9344670026855468 0.58248225 Q 1.9442320026855469 0.5780879999999999 1.9569265026855467 0.5780879999999999 Q 1.9705975026855467 0.5780879999999999 1.9818272526855467 0.5907825 Q 1.9930570026855468 0.603477 1.9930570026855468 0.6259365 Q 1.9930570026855468 0.6532785 1.9632737526855468 0.6708555 Q 1.933490502685547 0.6884325 1.8993130026855467 0.6884325 Q 1.8788065026855467 0.6884325 1.853905752685547 0.68501475 Q 1.8290050026855469 0.681597 1.807033752685547 0.66841425 Q 1.785062502685547 0.6552315 1.7704150026855467 0.6278895 Q 1.7557675026855468 0.6005475 1.7557675026855468 0.552699 L 1.7557675026855468 0.11327399999999999 Q 1.7557675026855468 0.08788499999999999 1.7728562526855467 0.07079625 Q 1.7899450026855468 0.05370750000000002 1.815334002685547 0.05370750000000002 M 2.580906665039062 0.003905999999999965 Q 2.6033661650390623 0.003905999999999965 2.619478415039062 0.02148299999999992 Q 2.635590665039062 0.039059999999999984 2.635590665039062 0.05858999999999992 Q 2.635590665039062 0.07714349999999992 2.6228961650390623 0.09374399999999994 L 2.426619665039062 0.3525165 L 2.3602176650390625 0.261702 L 2.5330581650390624 0.03222449999999999 Q 2.553564665039062 0.003905999999999965 2.580906665039062 0.003905999999999965 M 2.1453876650390624 0.0019529999999999825 Q 2.173706165039062 0.0019529999999999825 2.193236165039062 0.027341999999999977 L 2.6228961650390623 0.5985945 Q 2.6346141650390624 0.6142185 2.6346141650390624 0.634725 Q 2.6346141650390624 0.662067 2.6150841650390624 0.677691 Q 2.5955541650390623 0.693315 2.5760241650390623 0.693315 Q 2.547705665039062 0.693315 2.528175665039062 0.667926 L 2.0985156650390624 0.09667349999999997 Q 2.085821165039062 0.0810495 2.085821165039062 0.06151949999999995 Q 2.085821165039062 0.036130499999999954 2.104862915039062 0.01904174999999997 Q 2.123904665039062 0.0019529999999999825 2.1453876650390624 0.0019529999999999825 M 2.1365991650390623 0.693315 Q 2.1151161650390624 0.693315 2.099492165039062 0.67720275 Q 2.0838681650390622 0.6610905 2.0838681650390622 0.6415605 Q 2.0838681650390622 0.6200775000000001 2.0985156650390624 0.601524 L 2.2967451650390625 0.33298649999999996 L 2.361194165039062 0.427707 L 2.1854241650390622 0.665973 Q 2.165894165039062 0.693315 2.1365991650390623 0.693315" fill="#72237a" fill-rule="nonzero"></path></g><g></g><g clip-path="url(#SvgjsClipPath1002)"><g clip-path="url(#a50190b41-212e-46ac-83eb-433207b110ec7f24ab42-8133-41ff-9bb6-8ac5d1dfea34)"><path d=" M 2.4360633946300405 -3.2532504859837545 C 2.4549305926250984 -3.247227254197448 2.473124217459638 -3.239268749166433 2.490353874420477 -3.229501999330992 C 2.491874310817961 -3.2286220477656973 2.493606233340815 -3.2281741367684074 2.4953626461508778 -3.2282066273317507 C 2.5003132946904003 -3.228250458878567 2.5044755471691413 -3.23193386815179 2.505121115211831 -3.236842440660028 L 2.5865856209419125 -3.854907600564826 C 2.6000574897340245 -3.957155630371628 2.635780970868665 -4.053473735026347 2.687192846216342 -4.126158497206013 C 2.737597210009053 -4.1974327432087275 2.7966661731744686 -4.236984768252237 2.853489824874533 -4.237502917051933 C 2.859333391893334 -4.237531703096361 2.8651769589121345 -4.23718627056323 2.870905381753225 -4.236437833408113 C 2.9308091402070406 -4.228521671190525 2.9823937318212836 -4.177829446953538 3.0161021898459923 -4.09368783909169 C 3.050069722270549 -4.008884152208009 3.0609220610197507 -3.902548504092489 3.0466441829836652 -3.7942841910003207 L 2.9859632013303044 -3.3338226243365807 C 2.985456019846895 -3.329860517257375 2.9873580468319254 -3.3259772121629396 2.9907992567941397 -3.323949011097917 C 2.9942424510445944 -3.3219622582643034 2.9985346464233134 -3.322199458535233 3.001737953676624 -3.3245535180308963 C 3.0101434786494803 -3.3308000896716834 3.019268654733027 -3.3359527916242224 3.0288831935718417 -3.3399540517996575 C 3.030003996872944 -3.340399250329777 3.031029776599844 -3.341053795488847 3.0319057282367394 -3.341882716776306 C 3.0416488876404877 -3.3510391726682176 3.0527714368907173 -3.3586063917650995 3.06486574910633 -3.364307045385399 C 3.067917069815655 -3.3657175615623514 3.0700184510588695 -3.3686249520495375 3.0704790277697107 -3.3719929192475657 L 3.1247695075601465 -3.783978787095243 C 3.142242636527694 -3.9165385216842976 3.1269572469366436 -4.044089484542952 3.0817343711408984 -4.143084691329436 C 3.0362812069897327 -4.242598046915617 2.965064533075874 -4.3034805308799715 2.881181999613874 -4.314563157984593 C 2.871541850410786 -4.315808367668017 2.861828035966184 -4.316395043589918 2.8521080947420083 -4.316319106694676 C 2.7728889004772785 -4.315628241628414 2.694274213145529 -4.268879705478007 2.6307434130938363 -4.1846805255273045 C 2.568104980419399 -4.101661573398133 2.524666839378165 -3.9882157723089984 2.508460296365431 -3.865213004469904 L 2.4292411021007023 -3.2640164665996734 C 2.428596558502866 -3.259246698554552 2.43147506944495 -3.254704238249321 2.4360633946300405 -3.2532504859837545" fill="#ebcf79" transform="matrix(1,0,0,1,0,0)" fill-rule="nonzero"></path></g><g clip-path="url(#a50190b41-212e-46ac-83eb-433207b110ec7f24ab42-8133-41ff-9bb6-8ac5d1dfea34)"><path d=" M 2.668481917338408 -3.693993612214595 C 2.6551015471334845 -3.6926532386790605 2.641939270273877 -3.6981041327870723 2.633424222693236 -3.70851205634247 C 2.624909175112596 -3.7189199798978683 2.6221734578625684 -3.7329011683249522 2.6261376459854224 -3.7457509200954027 C 2.649713416371619 -3.822091509917373 2.728903824591921 -3.8355921647539133 2.792520982776896 -3.8464445035031147 C 2.8599954709151687 -3.857958921274151 2.892610059251629 -3.8667962369134212 2.900180788936085 -3.897971523028502 C 2.905362276933052 -3.919561056349195 2.9269230242093167 -3.9328889949191694 2.948570129618865 -3.9275347906556375 C 2.9589110606839535 -3.925044674738729 2.967837643845824 -3.9185452567696597 2.9733829646035925 -3.9094686411963306 C 2.978928285361361 -3.900392025623001 2.980637285242408 -3.889483054989204 2.9781333972460002 -3.8791454499728575 C 2.957378659213708 -3.7931615352676444 2.8734097676184254 -3.7788836572315594 2.805992851569008 -3.7673692394605234 C 2.7474132511588616 -3.7573804820441494 2.7112004072689526 -3.749320389604424 2.7027660962516684 -3.7220600055314956 C 2.698020170802266 -3.706662540939696 2.684513387157944 -3.6956053502988775 2.668481917338408 -3.693993612214595" fill="#ebcf79" transform="matrix(1,0,0,1,0,0)" fill-rule="nonzero"></path></g><g clip-path="url(#a50190b41-212e-46ac-83eb-433207b110ec7f24ab42-8133-41ff-9bb6-8ac5d1dfea34)"><path d=" M 2.6429199098867073 -3.3870768065276233 C 2.629539539681783 -3.385736432992089 2.6163772628221755 -3.3911873271001007 2.6078622152415356 -3.401595250655499 C 2.5993471676608957 -3.412003174210897 2.596611450410867 -3.4259843626379807 2.600575638533721 -3.438834114408431 C 2.624180194964346 -3.515174704230402 2.7033418171402195 -3.5286753590669417 2.7669589753251955 -3.5395276978161436 C 2.8344334634634674 -3.5509845434983243 2.8670480517999284 -3.5598218591375947 2.8745899954399565 -3.591054717341531 C 2.877952949263376 -3.6049847519874003 2.8884920318337493 -3.616062520262611 2.9022372726693906 -3.620115133990047 C 2.915982513505032 -3.6241677477174825 2.930845683493935 -3.620579518451482 2.9412279702417354 -3.6107020974550874 C 2.951610256989535 -3.600824676458692 2.955934344122137 -3.586158678986509 2.95257138983457 -3.572228644452693 C 2.9318166517620066 -3.4862447295806733 2.847876546211152 -3.4719092794557334 2.7804308441173076 -3.460452433773552 C 2.721851243707161 -3.450463676357178 2.6856383998172513 -3.4424035839174527 2.6772328748443943 -3.4151431998445245 C 2.672469586360994 -3.39974576378789 2.6589561151498087 -3.388692379198204 2.6429199098867073 -3.3870768065276233" fill="#ebcf79" transform="matrix(1,0,0,1,0,0)" fill-rule="nonzero"></path></g><g clip-path="url(#a50190b41-212e-46ac-83eb-433207b110ec7f24ab42-8133-41ff-9bb6-8ac5d1dfea34)"><path d=" M 2.601439219866549 -3.078547982352707 C 2.588059410963166 -3.077203098089485 2.5748962412474397 -3.082654325960597 2.5663847311328594 -3.0930650029578866 C 2.557873221018279 -3.103475679955176 2.5551466734726445 -3.117459630067687 2.559123734557991 -3.130305290233515 C 2.5826707188997595 -3.2066170940110577 2.661832341075634 -3.220117748847598 2.725449499260609 -3.230941301552372 C 2.79295277344331 -3.242455719323408 2.82556736177977 -3.2512930349626785 2.833109305419798 -3.282525893166614 C 2.838319579461192 -3.304000282309597 2.859880326737458 -3.3174721511017093 2.8815274321470055 -3.3120891607937497 C 2.9030527085757623 -3.306889465969566 2.916288131610661 -3.2852256430662896 2.9110906997741415 -3.26369982011097 C 2.8903359617418483 -3.1777159054057567 2.8063670701465666 -3.1633804552808167 2.738921368052722 -3.1518660375097802 C 2.6803417676425747 -3.1418772800934063 2.644157709797093 -3.133874759742536 2.6357233987798097 -3.106614375669608 C 2.6309908157142097 -3.0912079456608437 2.6174768436607536 -3.0801448703022207 2.601439219866549 -3.078547982352707" fill="#ebcf79" transform="matrix(1,0,0,1,0,0)" fill-rule="nonzero"></path></g><g clip-path="url(#a50190b41-212e-46ac-83eb-433207b110ec7f24ab42-8133-41ff-9bb6-8ac5d1dfea34)"><path d=" M 2.009943578968417 -1.8007642562563864 C 2.0034313333459393 -1.7909552192236817 1.9932605053177606 -1.7841642993883537 1.9817044693849508 -1.7819093971563147 L 1.6779541285850141 -1.7215162759472293 C 1.666413686352089 -1.7192882477295495 1.654459548448363 -1.721664610493471 1.6446486751822922 -1.728137066165575 C 1.634835606513709 -1.734658339180657 1.6280446306210308 -1.7448396190686108 1.62579381608222 -1.7564049617934696 L 1.3655679744568008 -3.065306401916015 L 1.105370918875809 -1.7564049617934696 C 1.1005092162252252 -1.7324155293731076 1.0772077735981869 -1.7168383928789157 1.0531818203285872 -1.7215162759472298 L 0.7494314795286512 -1.7819093971563147 C 0.7378307036243321 -1.7842122807105216 0.7278131601635307 -1.7909194290621504 0.7212211559896125 -1.8007642562563864 C 0.7146485455820442 -1.8105445275059688 0.7122546831057679 -1.8225449290104172 0.7145715797268386 -1.8340984957035364 L 1.0182931344823478 -3.3620041618311918 C 1.0231262989686813 -3.385996810862101 1.046436621355752 -3.4015756190358 1.0704534469851417 -3.3968640616330044 L 1.3655679744568008 -3.3381981030895744 L 1.66068250192846 -3.3968640616330044 C 1.684715288652557 -3.4016077950374317 1.708051597037709 -3.385998741084449 1.712842814431254 -3.361975375786764 L 2.016593155231191 -1.8340697096591088 C 2.0189085804647693 -1.8225253553904888 2.016514536168609 -1.8105344062534412 2.009943578968417 -1.8007642562563864 M 1.096677533458677 -3.3011504639112657 L 0.8102563914041501 -1.8602937961326438 L 1.0269865198994799 -1.8172298736689685 L 1.3134076619540063 -3.2580865414475895 Z M 1.6344584154549249 -3.3011504639112657 L 1.4177570730040225 -3.2580865414475895 L 1.7041782150585492 -1.817229873668968 L 1.9208795575094515 -1.8602937961326438 Z" fill="#3bbecb" transform="matrix(1,0,0,1,0,0)" fill-rule="nonzero"></path></g><g clip-path="url(#a50190b41-212e-46ac-83eb-433207b110ec7f24ab42-8133-41ff-9bb6-8ac5d1dfea34)"><path d=" M 1.4843967658538946 -2.0912154445307762 L 1.2467103970152789 -2.0912154445307762 C 1.2434553344375965 -2.091229374881776 1.240395967583523 -2.0927719168517096 1.2384492560676001 -2.09538073664485 C 1.2365025445516773 -2.097989556437991 1.235894733671542 -2.101361459047913 1.236807997732188 -2.104485811011896 L 1.2501359363021622 -2.1716436526614644 C 1.2511073180476455 -2.1764723143808133 1.2553432412346373 -2.179950103588315 1.2602686239406742 -2.1799628195010383 L 1.4708673249729272 -2.1799628195010383 C 1.47579673064161 -2.1799613178677357 1.4800388473448434 -2.1764784436426377 1.481000012611439 -2.1716436526614644 L 1.4945294534924065 -2.103564657590213 C 1.4951549010550067 -2.100527541646317 1.4943755507904524 -2.097370395655063 1.4924086314355847 -2.094973212691318 C 1.490441712080716 -2.092576029727573 1.487497547321311 -2.0911951417833756 1.4843967658538946 -2.0912154445307762" fill="#3bbecb" transform="matrix(1,0,0,1,0,0)" fill-rule="nonzero"></path></g><g clip-path="url(#a50190b41-212e-46ac-83eb-433207b110ec7f24ab42-8133-41ff-9bb6-8ac5d1dfea34)"><path d=" M 1.1807615692316686 -1.7593699243695111 C 1.177506506653986 -1.759383854720511 1.1744471397999128 -1.7609263966904445 1.17250042828399 -1.7635352164835854 C 1.170553716768067 -1.7661440362767258 1.1699459058879316 -1.7695159388866477 1.1708591699485775 -1.7726402908506307 L 1.1841871085185522 -1.8397981325001997 C 1.1851584902640353 -1.8446267942195487 1.1893944134510273 -1.84810458342705 1.1943197961570642 -1.8481172993397732 L 1.5368449388009646 -1.8481172993397732 C 1.541778389545015 -1.8481271142996656 1.5460267737027424 -1.8446390943519857 1.5469776264394766 -1.8397981325001997 L 1.5605070673204444 -1.7717191374289478 C 1.561099296997688 -1.7686866411248356 1.560307476357641 -1.7655480526504168 1.5583475745617712 -1.7631594223367002 C 1.556387672765901 -1.7607707920229831 1.553464143503014 -1.7593812978032024 1.5503743796819325 -1.7593699243695111 L 1.1807903552760963 -1.7593699243695111 Z" fill="#3bbecb" transform="matrix(1,0,0,1,0,0)" fill-rule="nonzero"></path></g><g clip-path="url(#a50190b41-212e-46ac-83eb-433207b110ec7f24ab42-8133-41ff-9bb6-8ac5d1dfea34)"><path d=" M 0.9443705723922946 -1.9116768854358934 C 0.9208933151397756 -1.9116652428563832 0.8997218461913876 -1.9258001790337413 0.8907321098042964 -1.947488110777945 C 0.8817423734172052 -1.969176042522148 0.8867055722834449 -1.9941439053699113 0.9033065021316584 -2.0107448352181247 C 0.9199074319798719 -2.0273457650663382 0.9448752948276351 -2.0323089639325778 0.9665632265718382 -2.0233192275454868 C 0.9882511583160416 -2.0143294911583953 1.0023860944933998 -1.9931580222100074 1.0023744519138897 -1.9696807649574883 C 1.002342716010003 -1.9376592615208104 0.976392075828961 -1.9117086213397734 0.9443705723922886 -1.9116768854358934" fill="#3bbecb" transform="matrix(1,0,0,1,0,0)" fill-rule="nonzero"></path></g><g clip-path="url(#a50190b41-212e-46ac-83eb-433207b110ec7f24ab42-8133-41ff-9bb6-8ac5d1dfea34)"><path d=" M 1.78397313021183 -2.027655858434656 C 1.8159834111091058 -2.027624153316102 1.841929414681361 -2.001691026172418 1.8419770097334254 -1.9696807649574883 C 1.8419452738295388 -1.9376592615208104 1.8159946336484964 -1.9117086213397738 1.7839731302118242 -1.9116768854358934 C 1.7519516267751578 -1.9117086213397774 1.726000986594119 -1.9376592615208161 1.725969250690235 -1.9696807649574883 C 1.725969250690235 -2.0016332742721143 1.7519918348527768 -2.027655858434656 1.78397313021183 -2.027655858434656" fill="#3bbecb" transform="matrix(1,0,0,1,0,0)" fill-rule="nonzero"></path></g><g clip-path="url(#a50190b41-212e-46ac-83eb-433207b110ec7f24ab42-8133-41ff-9bb6-8ac5d1dfea34)"><path d=" M 1.5776635497992884 -1.4666734246297697 C 1.584773702772903 -1.554154213645218 1.659012911351659 -1.6226649993828834 1.746666416633673 -1.6226649993828834 C 1.7513009697865145 -1.6226649993828834 1.755935522939357 -1.6224922831163178 1.7605125040033436 -1.6221180645387592 L 1.7760569679942424 -1.6208514785839454 C 1.8209448265247914 -1.6173207058800725 1.862558140700575 -1.595990643470667 1.8916329363710191 -1.561609799151964 C 1.9208768870463573 -1.527375395146704 1.9352212060439575 -1.4828706944417211 1.9314728218588046 -1.4380025243798897 L 1.8673087288297052 -0.6462423723990098 C 1.8602273619005174 -0.5587615833835615 1.7859881533217614 -0.4902220116014684 1.6983058619953206 -0.4902220116014684 C 1.6936713088424782 -0.4902220116014684 1.6890079696452085 -0.4904235139124613 1.684459774625649 -0.4907977324900199 L 1.6689153106347503 -0.4920643184448341 C 1.6240300404625516 -0.4955814521808568 1.5824151180427466 -0.5169019740781264 1.553339342257974 -0.5512772118323879 C 1.524088021494537 -0.5855188561471132 1.50974321583827 -0.6300354315038099 1.5134994567701885 -0.6749132726488893 L 1.5204656795216656 -0.7473677464731354 C 1.5203467930694046 -0.7647304547767577 1.530002467263414 -0.7806844819336254 1.5454397570858418 -0.7886323028024904 C 1.5608770469082704 -0.796580123671355 1.5794721280186443 -0.795170873813619 1.5935353109158135 -0.78498732529525 C 1.607598493812983 -0.7748037767768805 1.6147395064987815 -0.7575767931615118 1.612005300801404 -0.7404303097660851 L 1.6052117943164925 -0.6674576871421434 C 1.6034773874262076 -0.6469160357470125 1.610039516563962 -0.6265350785829931 1.6234333604391573 -0.6108643237975002 C 1.6367495312839526 -0.59511824740793 1.6558117158208592 -0.5853539310219777 1.6763708961414963 -0.5837478699467105 L 1.691915360132395 -0.5824812839918962 C 1.7346219637176234 -0.579214376215754 1.771975392915387 -0.6109911324613915 1.7755963912834012 -0.6536691718613277 L 1.8397604843125006 -1.445429323842208 C 1.8415046764286254 -1.4659720907735942 1.834941359919071 -1.4863567357305985 1.8215389181898358 -1.5020226871868512 C 1.808095835442151 -1.5178550116220264 1.7892985484309343 -1.5274695504608413 1.7686013824874964 -1.5291391410376418 L 1.753056918496598 -1.5304345130368828 C 1.7103503149113697 -1.533701420813025 1.6729968857136062 -1.5019246645673876 1.669375887345592 -1.4592466251674514 L 1.625995318393213 -0.9415871882260891 C 1.6262429817929436 -0.9244445576889575 1.6169484794629094 -0.9085831106983551 1.6018721615237432 -0.9004200379748424 C 1.5867958435845775 -0.8922569652513297 1.5684331793164026 -0.8931434386987589 1.5542132966428135 -0.9027208107621969 C 1.5399934139692244 -0.9122981828256358 1.5322700228956803 -0.9289811832908939 1.5341678366691986 -0.9460202390679386 L 1.533937548313778 -0.9460202390679386 Z" fill="#3bbecb" transform="matrix(1,0,0,1,0,0)" fill-rule="nonzero"></path></g><g clip-path="url(#a50190b41-212e-46ac-83eb-433207b110ec7f24ab42-8133-41ff-9bb6-8ac5d1dfea34)"><path d=" M 0.904271612504661 -0.8955583031863723 C 0.8797459026523538 -0.8955583031863723 0.8597108157307509 -0.9147298087751476 0.8583290855982264 -0.9389100860943236 L 0.8582427274649436 -0.9389100860943236 L 0.815178805001268 -1.4379737383354625 C 0.8114095597716728 -1.4828530689668424 0.8257559423709842 -1.5273745380882602 0.8550186904890538 -1.561609799151964 C 0.8840944662738262 -1.5959850369062254 0.925709388693631 -1.617305558803495 0.9705946588658299 -1.6208226925395182 L 0.9861103368123012 -1.6221180645387596 C 0.9907161039207155 -1.6224922831163182 0.9953794431179854 -1.6226649993828839 0.9999852102263997 -1.6226649993828839 C 1.087667501552841 -1.6226649993828839 1.1618779240871695 -1.554154213645218 1.1689592910163566 -1.4666734246297701 L 1.2331233840454563 -0.6749132726488898 C 1.2368861245472405 -0.6300346868213889 1.2225405308691917 -0.5855156659780234 1.193283498557671 -0.5512772118323883 C 1.1642199404647662 -0.5168865906282551 1.1225981485415535 -0.49556254928677346 1.0777075301808945 -0.4920643184448341 L 1.0621918522344231 -0.4907977324900199 C 1.0575765674202897 -0.4904185248724806 1.0529478137926498 -0.4902264604066042 1.0483169788203255 -0.4902220116014684 C 0.9606346874938834 -0.4902220116014684 0.8864242649595548 -0.5587615833835615 0.87931411198594 -0.6462423723990098 L 0.8715706660349181 -0.7420711142984588 C 0.8714555218572078 -0.7431361979422801 0.8713403776794972 -0.7442012815861001 0.8713115916350698 -0.7452663652299214 L 0.8711388753685043 -0.7473677464731354 L 0.8712540195462146 -0.7473677464731354 C 0.8721308114559441 -0.7721555404333231 0.8924796085657316 -0.7917972874347887 0.9172829045859319 -0.7917972874347887 C 0.9420862006061321 -0.7917972874347887 0.9624349977159199 -0.7721555404333231 0.9633117896256493 -0.7473677464731354 L 0.9634269338033599 -0.7473677464731354 L 0.9710264495322436 -0.6536691718613286 C 0.9746773843639056 -0.6109945434682849 1.0120293326696241 -0.5792299739497007 1.0547362667276772 -0.5824812839918962 L 1.070223158629721 -0.5837190839022832 C 1.0909491106175864 -0.5854174605235105 1.1097463976288031 -0.5950607854067536 1.1232182664209152 -0.6108643237975011 C 1.1366325631241727 -0.6266678621882482 1.1431094231203804 -0.6467605211987064 1.14143983254358 -0.6674576871421438 L 1.0772757395144805 -1.4592178391230242 C 1.0736549276282346 -1.501907978757362 1.0362833275432828 -1.5336892603976944 0.9935659223190472 -1.530405726992456 L 0.9780502443725758 -1.5291679270820695 C 0.9574911478466142 -1.5275388006764374 0.9384339933161399 -1.5177666980542308 0.9251127086702366 -1.5020226871868512 C 0.9117142371253437 -1.486353218373886 0.9051423744909408 -1.465974224778876 0.9068623565031442 -1.4454293238422085 L 0.9498687068779645 -0.9477474017335941 C 0.9500702091889579 -0.9463080995122142 0.950185353366668 -0.9448687972908352 0.9502429254555234 -0.9433719229805999 L 0.9502717114999508 -0.9433143508917454 L 0.9502429254555234 -0.9433143508917454 L 0.9503004975443785 -0.9415871882260891 C 0.9502846184575584 -0.9161727172059542 0.9296860835248055 -0.8955741822731973 0.9042716125046655 -0.8955583031863723" fill="#3bbecb" transform="matrix(1,0,0,1,0,0)" fill-rule="nonzero"></path></g><g clip-path="url(#a50190b41-212e-46ac-83eb-433207b110ec7f24ab42-8133-41ff-9bb6-8ac5d1dfea34)"><path d=" M 0.27768578344929584 -0.8955583031863723 C 0.2551840297793132 -0.8955756963990926 0.23598891152922763 -0.9118495537867686 0.23229019138698548 -0.934045244586061 L 0.14195958397320596 -1.4140525354161344 C 0.12477530631107858 -1.5061264519256192 0.18536333320463783 -1.5947356364218108 0.2773979230050201 -1.6121293071223857 L 0.2927120986404981 -1.6150366976095722 C 0.3848230604166776 -1.6323214920572022 0.47350997968555 -1.5716762374685196 0.4908176563911768 -1.479569572533331 L 0.637424980660896 -0.6988344755682174 C 0.6458693602789656 -0.654607240530364 0.6362598084775117 -0.6088400655536454 0.6107403174765194 -0.5717440894204051 C 0.585427033096807 -0.5345044718626939 0.5462648941722679 -0.5089423134222724 0.5019866416290819 -0.500757703861967 L 0.4867012520380314 -0.49785031337478003 C 0.3945744533191249 -0.48056580794003656 0.30587483253134407 -0.5412238226208563 0.2885669082429252 -0.6333462244954493 L 0.26873332363231517 -0.7378683518120308 L 0.26876210967674286 -0.7378683518120308 C 0.26499254348620704 -0.7546418440101603 0.27087866134660943 -0.7721185421970795 0.28402766371026456 -0.7831938935064575 C 0.2971766660739197 -0.794269244815835 0.3153994951875778 -0.7970994147891131 0.33128828422036194 -0.7905338947901175 C 0.3471770732531465 -0.7839683747911224 0.3580866423001461 -0.7691001985010733 0.35958207984579116 -0.7519735135815506 L 0.359812368201212 -0.7520022996259779 L 0.3789838737899873 -0.6503299907077276 C 0.38689699527649957 -0.6081468922128965 0.42750404824058874 -0.5803624408671086 0.46968869978132544 -0.5882672789218422 L 0.48497408937237596 -0.591145883364601 C 0.505255555574649 -0.5949130875058772 0.5231931631932181 -0.6066227909195008 0.5348027322765352 -0.6236741135677786 C 0.5465186523585648 -0.6408018100021953 0.550865345067131 -0.661470189901205 0.5470080151138339 -0.6818794954003669 L 0.40040069084411467 -1.4625858063210524 C 0.3966081472133791 -1.4828451805557386 0.3849179603924786 -1.5007661258634601 0.36790492249902385 -1.5124015103954802 C 0.35089188460556886 -1.5240368949275007 0.3299514731856308 -1.5284323378168616 0.3096958648527768 -1.5246197320625101 L 0.29441047526172603 -1.5217411276197512 C 0.25225381814842895 -1.5137716390457374 0.22450312000703998 -1.4731822188407917 0.23237654952026832 -1.4310075155839859 L 0.3227071569340476 -0.9511729410204772 L 0.32302380342275105 -0.9495321364881044 L 0.3231101615560339 -0.9490715597772632 C 0.3252976867834232 -0.935736131867174 0.3215182947190438 -0.9221128352648793 0.31277311596853496 -0.9118103718319288 C 0.3040279372180259 -0.9015079083989788 0.2911994375310536 -0.8955658876592181 0.27768578344929584 -0.8955583031863723" fill="#3bbecb" transform="matrix(1,0,0,1,0,0)" fill-rule="nonzero"></path></g><g clip-path="url(#a50190b41-212e-46ac-83eb-433207b110ec7f24ab42-8133-41ff-9bb6-8ac5d1dfea34)"><path d=" M 2.2403182925224243 -1.479540786488903 C 2.2576403670128347 -1.5716380508792325 2.3463164255956626 -1.6322758787912917 2.438423850273103 -1.6150079115651446 L 2.4537380259085815 -1.6121293071223852 C 2.498014269224102 -1.60395885211951 2.5371724242516045 -1.578392526914897 2.562462915711591 -1.5411429215639472 C 2.5879894085478155 -1.5040498453307571 2.597609132425432 -1.4582835943397274 2.5891763649403954 -1.414052535416134 L 2.4425690406706764 -0.6333462244954484 C 2.4275243961693977 -0.5531411160671125 2.357530514203952 -0.4949962588600245 2.275926629479354 -0.49491413684316576 C 2.2654197232632836 -0.49491413684316576 2.2548552449583577 -0.49589286235370356 2.244463482919998 -0.49785031337478003 L 2.229149307284519 -0.5007289178175389 C 2.18486877954307 -0.5089266600035245 2.1457080305270164 -0.5344982766849973 2.1203956314370824 -0.5717440894204047 C 2.0948701142488044 -0.6088374835161985 2.085260032852405 -0.6546071807816842 2.0937109682527053 -0.6988344755682174 L 2.103527009402514 -0.7522613740258253 C 2.1050428520153472 -0.7690987901614021 2.1156611473271107 -0.7837525370007303 2.1311892122992795 -0.790436514796141 C 2.1467172772714482 -0.7971204925915516 2.164659129715514 -0.7947603183110545 2.1779303461705277 -0.7842879176906798 C 2.191201562625541 -0.7738155170703056 2.1976689268825975 -0.7569142244769718 2.194778770237977 -0.7402575934995204 L 2.1947211981491215 -0.7399697330552448 C 2.194612958600546 -0.7392855452406315 2.194488182570625 -0.7386040761541413 2.194346979571563 -0.7379259239008853 L 2.1841279337997674 -0.6818507093559387 C 2.180247479749217 -0.6615973872597016 2.1846434315622894 -0.6406336736605684 2.1963332166370657 -0.6236453275233509 C 2.2079368160154464 -0.6065932126643743 2.225879028684366 -0.5948908682951028 2.2461618595412256 -0.591145883364601 L 2.2614760351767034 -0.5882672789218413 C 2.303651325991903 -0.5803612108750911 2.3442540419839526 -0.6081298090860932 2.3521808611680415 -0.6503012046632994 L 2.4987881854377605 -1.4310075155839854 C 2.5026210966757834 -1.4512643188099301 2.498217872244198 -1.4722133065762018 2.486554116556035 -1.4892128974165737 C 2.4749573994686234 -1.5062720289253173 2.4570119514012543 -1.5179764834995866 2.436725473651875 -1.5217123415753235 L 2.4214112980163973 -1.5246197320625097 C 2.379236664474962 -1.5325068025359654 2.3386488351017576 -1.5047266882094164 2.3307352580694864 -1.4625570202766247 L 2.2303583211504785 -0.9355421188962953 C 2.2282037837585484 -0.9188240963542338 2.2170832808338954 -0.9046209873425775 2.2013703521311694 -0.8985186778885152 C 2.1856574234284434 -0.8924163684344513 2.1678657093296376 -0.8953910617498289 2.154992444531935 -0.9062728521603409 C 2.142119179734231 -0.9171546425708526 2.13622373578165 -0.9342027401625543 2.1396247091147123 -0.9507123643096356 L 2.139308062626009 -0.9507699363984905 Z" fill="#3bbecb" transform="matrix(1,0,0,1,0,0)" fill-rule="nonzero"></path></g><g clip-path="url(#a50190b41-212e-46ac-83eb-433207b110ec7f24ab42-8133-41ff-9bb6-8ac5d1dfea34)"><path d=" M 2.0745106766195027 -1.7593699243695111 C 2.0708618961651215 -1.7593826128713834 2.067488663191229 -1.7613132795066835 2.0656296274753068 -1.7644529842713519 C 2.0637705917593845 -1.7675926890360203 2.063699733805227 -1.771478709301427 2.065443072624811 -1.7746841000049893 C 2.075863620707599 -1.7936541032827718 2.0801239552828825 -1.8150997063813268 2.0777922856842475 -1.8366604536575921 C 2.0774825881548677 -1.839577933911822 2.078424053860025 -1.842489966904553 2.0803830697920525 -1.8446739678595865 C 2.08234208572408 -1.8468579688146196 2.085135042833879 -1.8481092419293188 2.0880689035448983 -1.8481172993397732 L 3.1472226222136666 -1.8481172993397732 L 3.1472226222136666 -2.0912154445307762 L 2.036167665441952 -2.0912154445307762 C 2.0312382597732688 -2.0912169461640784 2.0269961430700354 -2.0946998203891765 2.02603497780344 -2.0995346113703497 L 2.0125055369224727 -2.1676136064416016 C 2.011913307245228 -2.1706461027457133 2.0127051278852752 -2.1737846912201326 2.0146650296811455 -2.1761733215338492 C 2.0166249314770157 -2.178561951847566 2.0195484607399017 -2.179951446067347 2.0226382245609846 -2.179962819501038 L 3.191610702721012 -2.179962819501038 C 3.216078840484464 -2.179962819501038 3.2359987832283563 -2.160071662801573 3.2359987832283563 -2.1356035250381207 L 3.2359987832283563 -1.8037292188324283 C 3.2359987832283563 -1.7792610810689764 3.216078840484464 -1.7593699243695111 3.191610702721012 -1.7593699243695111 L 3.046039676050686 -1.7593699243695111 Z" fill="#3bbecb" transform="matrix(1,0,0,1,0,0)" fill-rule="nonzero"></path></g><g clip-path="url(#a50190b41-212e-46ac-83eb-433207b110ec7f24ab42-8133-41ff-9bb6-8ac5d1dfea34)"><path d=" M -0.46044596776298297 -2.179991605545466 L 0.7084977243526169 -2.179991605545466 C 0.7115911408370352 -2.179990663262313 0.7145214579648553 -2.1786040024474684 0.7164836635187939 -2.176212564428606 C 0.7184458690727327 -2.1738211264097433 0.7192335852932925 -2.1706764340812494 0.7186304119911289 -2.1676423924860293 L 0.7051009711101615 -2.0995633974147774 C 0.7041501183734267 -2.0947224355629914 0.6999017342156992 -2.0912344156153115 0.6949682834716491 -2.091244230575204 L -0.4160866733000658 -2.091244230575204 L -0.4160866733000658 -1.8481460853842009 L 0.6430958314131314 -1.8481460853842009 C 0.6460326923637685 -1.8481471053012162 0.6488312737080646 -1.8468985066209078 0.6507922857018236 -1.8447122803645604 C 0.6527532976955819 -1.8425260541082134 0.6536914956458153 -1.8396087195694109 0.6533724492737809 -1.8366892397020198 C 0.6509923822759396 -1.8152466628558446 0.6553488541593586 -1.7935950982066124 0.6658368065109277 -1.7747416720938451 C 0.667610492944011 -1.771540735557727 0.6675590396694497 -1.7676404518743714 0.6657015304757934 -1.7644874187526551 C 0.6638440212821368 -1.761334385630939 0.6604574910199907 -1.7593988564956167 0.6567979885606641 -1.7593987104139392 L -0.46044596776298297 -1.7593987104139392 C -0.484914105526435 -1.7593987104139392 -0.5048340482703277 -1.779289867113404 -0.5048340482703277 -1.803758004876856 L -0.5048340482703277 -2.135603525038121 C -0.5048340482703277 -2.160071662801573 -0.484914105526435 -2.179991605545466 -0.46044596776298297 -2.179991605545466" fill="#3bbecb" transform="matrix(1,0,0,1,0,0)" fill-rule="nonzero"></path></g><g clip-path="url(#a50190b41-212e-46ac-83eb-433207b110ec7f24ab42-8133-41ff-9bb6-8ac5d1dfea34)"><path d=" M 0.027592629462388496 -0.350436979861088 L 2.703543319451213 -0.350436979861088 L 2.963337370410218 -1.6553947318970543 L 3.050645443159101 -1.6553947318970543 L 2.7801141976286035 -0.2989675324245562 C 2.7759013564886965 -0.2792139275826617 2.75848579674408 -0.265070527377123 2.7382880750753147 -0.2649999999999988 L -0.00712334011728577 -0.2649999999999988 C -0.02724478517217166 -0.2649999999999988 -0.04483305831742945 -0.2792778780360843 -0.04897824871500256 -0.2990538905578388 L -0.3194519221566441 -1.6553947318970543 L -0.23225899358547208 -1.6553947318970543 Z" fill="#3bbecb" transform="matrix(1,0,0,1,0,0)" fill-rule="nonzero"></path></g><g clip-path="url(#a50190b41-212e-46ac-83eb-433207b110ec7f24ab42-8133-41ff-9bb6-8ac5d1dfea34)"><path d=" M 0.28862448033178034 -2.7071216511035052 C 0.30871713934223854 -2.7071216511035052 0.32506761257711014 -2.690771177868634 0.32506761257711014 -2.6706785188581756 C 0.32506761257711014 -2.650585859847717 0.30871713934223854 -2.634235386612846 0.28862448033178034 -2.634235386612846 C 0.2276928420096218 -2.6341560608295342 0.17832222140348564 -2.584772563170554 0.17825878599639777 -2.523840906233036 C 0.17748104111571428 -2.5042771036408835 0.1613949095838143 -2.4888177584165225 0.14181565375106808 -2.4888177584165225 C 0.12223639791832175 -2.4888177584165225 0.106150266386422 -2.5042771036408835 0.1053725215057385 -2.523840906233036 C 0.10548354352223444 -2.625006808059667 0.18745859719159474 -2.706994738740281 0.28862448033178545 -2.7071216511035052" fill="#57c035" transform="matrix(1,0,0,1,0,0)" fill-rule="nonzero"></path></g><g clip-path="url(#a50190b41-212e-46ac-83eb-433207b110ec7f24ab42-8133-41ff-9bb6-8ac5d1dfea34)"><path d=" M 2.215965298936683 -2.903816692677232 C 2.2219815822220497 -2.895152093304527 2.2242556797318294 -2.884702759177312 2.2224133728884636 -2.8743685692278067 L 2.217836391824477 -2.8490080640870996 C 2.2150711701976817 -2.833275723538237 2.203069915482856 -2.8207758947317423 2.1874630913301614 -2.817372950468675 C 2.171856267177466 -2.813970006205608 2.155740771576009 -2.8203392005378 2.146677289999473 -2.833492386140628 C 2.1406933196891886 -2.8420584022942297 2.1383820675884895 -2.852661141751698 2.1402580020921196 -2.8629405095900533 L 2.144806197111679 -2.888301014730761 C 2.1475714187384742 -2.904033355279623 2.1595726734533 -2.916533184086118 2.1751794976059946 -2.9199361283491854 C 2.190786321758689 -2.9233390726122526 2.206901817360147 -2.91696987828006 2.215965298936683 -2.903816692677232" fill="#ed1c24" transform="matrix(1,0,0,1,0,0)" fill-rule="nonzero"></path></g><g clip-path="url(#a50190b41-212e-46ac-83eb-433207b110ec7f24ab42-8133-41ff-9bb6-8ac5d1dfea34)"><path d=" M 2.1795221666913527 -2.729430835534888 C 2.1813376698210902 -2.7397404822596862 2.1871891515063098 -2.748900648241837 2.195780302901472 -2.7548820347792238 C 2.204371454296634 -2.7608634213166106 2.2149930298692615 -2.763172232934734 2.2252919773312225 -2.761296986716231 C 2.246699905113352 -2.7574142903575245 2.2609356345646656 -2.736948820350663 2.2571293424681373 -2.7155271760763617 L 2.252581147448578 -2.690166670935654 C 2.2482640174636446 -2.6692201259725388 2.2280378603962827 -2.6555319960956956 2.2069875849215386 -2.659311051485078 C 2.1859373094467944 -2.663090106874461 2.171735471862835 -2.6829589301530996 2.1749739716717933 -2.7040991164386083 Z" fill="#ed1c24" transform="matrix(1,0,0,1,0,0)" fill-rule="nonzero"></path></g><g clip-path="url(#a50190b41-212e-46ac-83eb-433207b110ec7f24ab42-8133-41ff-9bb6-8ac5d1dfea34)"><path d=" M 2.3007689858203646 -2.768522283867556 C 2.30353420744716 -2.7842546244164184 2.3155354621619857 -2.7967544532229134 2.3311422863146802 -2.8001573974859806 C 2.3467491104673748 -2.803560341749048 2.3628646060688325 -2.797191147416856 2.3719280876453688 -2.784037961814027 C 2.3779443709307353 -2.7753733624413224 2.380218468440515 -2.7648952422696795 2.3783761615971493 -2.754589838364602 L 2.37382796657759 -2.729229333223895 C 2.3710371503954644 -2.7135155889509477 2.3590379341158707 -2.701040142035202 2.343444651250259 -2.6976401503424166 C 2.3278513683846462 -2.6942401586496314 2.3117478761921415 -2.700588032803864 2.3026688647525857 -2.7137136552774237 C 2.296652581467219 -2.7223494686057004 2.2943496979130122 -2.7328275887773437 2.296220790800805 -2.743161778726849 Z" fill="#ed1c24" transform="matrix(1,0,0,1,0,0)" fill-rule="nonzero"></path></g><g clip-path="url(#a50190b41-212e-46ac-83eb-433207b110ec7f24ab42-8133-41ff-9bb6-8ac5d1dfea34)"><path d=" M 2.3296989604700933 -2.8813060059348565 L 2.325150765450534 -2.8559742868385767 C 2.3224031631151094 -2.8402328625103355 2.3104090737262677 -2.8277160089487934 2.294799110899909 -2.824299750903057 C 2.2791891480735504 -2.820883492857321 2.2630632340966708 -2.8272462518311388 2.2539916636255306 -2.84040103680325 C 2.247975380340164 -2.8490368501315273 2.2457012828303835 -2.85951497030317 2.2475435896737492 -2.8698779462971027 L 2.2520917846933086 -2.8952384514378107 C 2.2542617668128084 -2.9094035985579447 2.26394496807871 -2.9212768456420717 2.277384267507303 -2.926251325132695 C 2.290823566935895 -2.9312258046233186 2.3059036579264927 -2.9285185479321285 2.3167734046056125 -2.919179981528993 C 2.3276431512847315 -2.9098414151258574 2.3325916871730383 -2.8953414021727992 2.3296989604700933 -2.8813060059348565" fill="#ed1c24" transform="matrix(1,0,0,1,0,0)" fill-rule="nonzero"></path></g><g clip-path="url(#a50190b41-212e-46ac-83eb-433207b110ec7f24ab42-8133-41ff-9bb6-8ac5d1dfea34)"><path d=" M 2.2824898476088444 -2.9933988629358943 C 2.27972462598205 -2.9776665223870316 2.2677233712672233 -2.965166693580537 2.252116547114529 -2.9617637493174698 C 2.2365097229618343 -2.9583608050544026 2.2203942273603774 -2.964729999386594 2.2113307457838403 -2.9778831849894227 C 2.2053144624984746 -2.9865189983177 2.203040364988695 -2.996997118489343 2.2048826718320607 -3.007331308438848 L 2.20943086685162 -3.0326918135795555 C 2.2119196583397285 -3.046555000490573 2.2216153187608816 -3.058037358970843 2.234865586600338 -3.0628135956257605 C 2.248115854439794 -3.0675898322806776 2.2629076987601495 -3.064934323125339 2.2736691748565967 -3.0558473727773565 C 2.284430650953044 -3.046760422429374 2.289526834567692 -3.03262255484485 2.2870380426176604 -3.018759368016759 Z" fill="#ed1c24" transform="matrix(1,0,0,1,0,0)" fill-rule="nonzero"></path></g><g clip-path="url(#a50190b41-212e-46ac-83eb-433207b110ec7f24ab42-8133-41ff-9bb6-8ac5d1dfea34)"><path d=" M 2.4027579412273186 -2.958740465445075 C 2.400928117945549 -2.948438153296629 2.395073348895175 -2.9392876669348347 2.3864860781916315 -2.9333089822374623 C 2.377898807488089 -2.92733029754009 2.3672851690679675 -2.925015043606388 2.3569881305874487 -2.926874314263732 C 2.335589437040033 -2.930771372842438 2.321361150744983 -2.951226142470945 2.325150765450534 -2.972644124903601 L 2.3296989604700933 -2.9980046300443086 C 2.331528672745393 -3.0082993668539846 2.3373803845098404 -3.0174426074374523 2.345962287437728 -3.0234159143211805 C 2.3545441903656164 -3.0293892212049087 2.365150568159086 -3.0317013909745283 2.375439985065535 -3.029841995181224 C 2.3968555498959505 -3.025987046517514 2.4111103049381644 -3.0055256140314457 2.407306136246878 -2.984100970585782 Z" fill="#ed1c24" transform="matrix(1,0,0,1,0,0)" fill-rule="nonzero"></path></g><g clip-path="url(#a50190b41-212e-46ac-83eb-433207b110ec7f24ab42-8133-41ff-9bb6-8ac5d1dfea34)"><path d=" M 2.1077873439777974 -2.524848417788001 C 2.120335419826686 -2.524923255916672 2.132156656356811 -2.5189698070844715 2.139567137025857 -2.508843377086261 C 2.145842494711072 -2.500351493980122 2.148404452665128 -2.4899597319417612 2.146850006266037 -2.4795391838589738 L 2.1256059054784755 -2.338516352208207 C 2.1222357711148625 -2.317067075086671 2.1022473289061026 -2.30231309014439 2.08075724826029 -2.305412401116478 C 2.0704001206493707 -2.3069248215717333 2.0610854437799055 -2.312536447614473 2.0549073803643134 -2.3209856511518048 C 2.0486705984331195 -2.329380870786826 2.0460578657810498 -2.3399251132755388 2.0476532971685604 -2.350261058334664 L 2.068868611911695 -2.4912838899854304 C 2.0716541586641064 -2.5106130423753408 2.0882586929606672 -2.5249332250600967 2.1077873439777974 -2.524848417788001" fill="#ed1c24" transform="matrix(1,0,0,1,0,0)" fill-rule="nonzero"></path></g><g clip-path="url(#a50190b41-212e-46ac-83eb-433207b110ec7f24ab42-8133-41ff-9bb6-8ac5d1dfea34)"><path d=" M 0.26098987768129334 -2.839422311292712 C 0.30434166058924483 -2.839422311292712 0.3468298621643686 -2.830930428186573 0.38738939876284384 -2.814176950329715 C 0.36375605628779173 -2.86095427252455 0.33344435150553875 -2.8946051584604033 0.2972027215712023 -2.9142660268044476 C 0.2886915870573714 -2.9188448101429034 0.2823679151740808 -2.9266405499072223 0.2796432344703721 -2.9359131322139955 C 0.27537435866671156 -2.9500563130921824 0.2800808901362384 -2.965376748503907 0.29155386291549035 -2.974683937208704 C 0.30302683569474254 -2.9839911259135024 0.3189885305500457 -2.985437319892421 0.3319474771953044 -2.9783437617002644 C 0.35113744244792056 -2.9678638224602074 0.36889205007229253 -2.954946982580896 0.38476986871993324 -2.9399143923894306 C 0.3815458317440428 -3.016283768255829 0.39755087244578324 -3.079958498529659 0.4324107722475956 -3.129268992634122 C 0.5157463708654704 -3.247176630609533 0.6956015764490566 -3.2572517461591897 0.703229878222368 -3.2576259647367483 C 0.7199136583159182 -3.2583236432901397 0.7349685738007135 -3.2476799481319967 0.739874512778691 -3.2317185247519173 C 0.7420622521551876 -3.224406869467309 0.7927256903477473 -3.051690602901765 0.7092461615077343 -2.9336102486597886 C 0.64502449638978 -2.842732706401885 0.5236049609942026 -2.815990471128653 0.4698614160478909 -2.8084485274886246 C 0.47207794146881543 -2.8028064627808167 0.47417932271202967 -2.7970492538952985 0.47616555977753316 -2.791263258965353 C 0.5295636721907138 -2.8227839776135646 0.5890068539336886 -2.839422311292712 0.6483061054545252 -2.839422311292712 C 0.7062811989316926 -2.839422311292712 0.7619534088546529 -2.8239066333462404 0.8093352379824672 -2.794544868030098 C 0.8128509243399031 -2.7923533204545277 0.8146489227844154 -2.7882190692540885 0.8138546469575989 -2.784153105991738 L 0.8025993035864107 -2.7276173147359497 C 0.8019247626183286 -2.7242714882498937 0.799583948529766 -2.7215040757386575 0.7963963524208868 -2.720283915323354 C 0.7932087563120078 -2.71906375490805 0.7896183618520278 -2.719560796381475 0.7868821233289465 -2.721601031450583 C 0.7482800377515473 -2.7505597921447396 0.6990846878247949 -2.7665360468020523 0.6483061054545249 -2.7665360468020523 C 0.5879705563342952 -2.7665360468020523 0.5289303792133067 -2.744888941392504 0.4776336480433403 -2.703926400172043 L 0.4773457875990643 -2.703696111816622 L 0.476107987688678 -2.7028037444393664 L 0.47492775986714686 -2.7019401631065394 C 0.4748159110136436 -2.7018834498913664 0.47470986015837746 -2.7018159629834697 0.4746111133784432 -2.701738660795546 L 0.4735172436901949 -2.7010765817737115 L 0.4718476531133946 -2.7000978562631737 L 0.4705810671585806 -2.6994645632857663 L 0.47040835089201494 -2.6993782051524837 L 0.46991898813674604 -2.6991767028414904 L 0.467817606893532 -2.698284335464235 L 0.4674146022715455 -2.6981116191976695 C 0.46673782601731895 -2.6978682454759735 0.46605643022216503 -2.697637914502964 0.4653707931171871 -2.6974207541314073 L 0.4643344955177935 -2.697104107642704 L 0.4640178490290898 -2.6970177495094214 L 0.462808835163131 -2.6967298890651454 C 0.4624346165855724 -2.6966147448874347 0.4620603980080138 -2.6965571727985793 0.4616861794304552 -2.696499600709725 L 0.4569364820999027 -2.695895093776745 L 0.4559865426337921 -2.69583752168789 L 0.4547775287678333 -2.695779949599035 C 0.4539029892090587 -2.695775195858763 0.4530287482404529 -2.6958136240332067 0.4521579987249227 -2.695895093776745 C 0.45109291508110183 -2.6959526658656 0.4504884081481224 -2.696039023998883 0.4497111849485773 -2.696125382132166 L 0.4491354640600256 -2.696211740265449 L 0.44879003152689445 -2.696269312354304 C 0.4480128083273496 -2.696384456532014 0.44752344557208046 -2.696499600709725 0.4470916549056667 -2.6965859588430074 L 0.4463144317061216 -2.6967874611540004 L 0.44202531108641074 -2.698082833153242 L 0.4411041576647279 -2.6983994796419455 L 0.4403269344651828 -2.698716126130649 C 0.4398384698688549 -2.6988955398579613 0.43936652213317573 -2.6991170663461372 0.4389164182882308 -2.6993782051524837 L 0.43494394415722337 -2.7016235166178353 L 0.43433943722424395 -2.7019977351953943 C 0.43387315045920993 -2.7022920028138016 0.43342162331478207 -2.7026090325109533 0.4329864931361471 -2.702947674661505 L 0.43209412575889194 -2.7036097536833394 L 0.43183505135904365 -2.7038112559943324 C 0.38042317601136677 -2.7448313693036495 0.321354212845951 -2.7665360468020523 0.26098987768129334 -2.7665360468020523 C 0.18867933407918558 -2.7665360468020523 0.12339258531741015 -2.7355910490423927 0.08188310925282449 -2.6816460017850874 C 0.038329824033879856 -2.625081424484872 0.02641240164085734 -2.548452974218626 0.04828979540582623 -2.4658370267114407 C 0.062020738597786895 -2.41399336069735 0.08415720676260419 -2.3548956114875064 0.10902834914804238 -2.30371402449525 C 0.1105433542933173 -2.30063826912043 0.11035949659510835 -2.296997675492449 0.10854232570810607 -2.2940902020732454 C 0.10672515482110378 -2.2911827286540416 0.10353327796707723 -2.289422146998446 0.10010467537548928 -2.2894361464591655 L 0.04152507496534241 -2.2894361464591655 C 0.03763088112293922 -2.2894284985872435 0.03409373959829021 -2.2917039845362215 0.0324862570150789 -2.2952509274335386 C 0.010074012933432908 -2.3442879887260353 -0.00821088215063459 -2.395108250049736 -0.022178441352914913 -2.44718366992236 C -0.04998576026996815 -2.552166373949785 -0.033548928901813935 -2.6512191528251243 0.024109518086650072 -2.7261204404257153 C 0.07952265360976207 -2.7981143375391193 0.16588078689253383 -2.839422311292712 0.26098987768129334 -2.839422311292712 M 0.46491021640634544 -2.8815650803347044 C 0.5160630173541738 -2.8895388146411474 0.604867964413291 -2.912193431605661 0.6497166216314771 -2.9756666595684984 C 0.6945652788496632 -3.039111101486908 0.6863036840989447 -3.130391648366798 0.6767467173489847 -3.181314160959206 C 0.6255939164011561 -3.1733404266527634 0.5367889693420391 -3.1506858096882495 0.4919403121238528 -3.0871837956809847 C 0.447062868861239 -3.0237105677181475 0.45535324965638524 -2.9324588068826847 0.46491021640634544 -2.8815650803347044" fill="#57c035" transform="matrix(1,0,0,1,0,0)" fill-rule="nonzero"></path></g><g clip-path="url(#a50190b41-212e-46ac-83eb-433207b110ec7f24ab42-8133-41ff-9bb6-8ac5d1dfea34)"><path d=" M -0.027331143305454386 -2.803267039491658 C -0.03018732241696165 -2.80086946664849 -0.03414825593095894 -2.800279777108485 -0.03757897512167674 -2.801741379136996 C -0.04100618215295637 -2.8031781248412866 -0.043340465573825204 -2.8064127747244907 -0.04362404445147072 -2.8101181180654247 L -0.04376797467360871 -2.81184528073108 C -0.04440005561537541 -2.8187113156844052 -0.045662364036712866 -2.8255046548984737 -0.04753894649362289 -2.832139442052531 C -0.05038876489195454 -2.8420130552911953 -0.049208537070423275 -2.852376031285128 -0.04422855138445014 -2.861357277146536 C -0.03647534727300006 -2.8755499070087347 -0.02060923586889296 -2.883304108364051 -0.004647740296513048 -2.880701499001877 L -0.004043233363533627 -2.8805863548241666 L -0.0027766474087196347 -2.8802984943798906 C -0.0016539916760436313 -2.88006820602447 -0.0003586196768019523 -2.879780345580194 0.001051896500149918 -2.879319768869353 C 0.0015412592554189253 -2.879175838647215 0.0020306220106880435 -2.8789743363362215 0.002922989387943331 -2.87862890380309 L 0.0031820637877916225 -2.8785425456698075 C 0.004132003253902061 -2.878139541047821 0.005283445031005751 -2.8777077503814077 0.0063485286748266034 -2.877160815537283 L 0.008363551784758005 -2.8760669458490344 C 0.010067631723512438 -2.8750501418235244 0.01171120483351662 -2.8739352033395447 0.013285965381875986 -2.8727277646954343 C 0.014351049025696727 -2.871892969407034 0.015243416402952126 -2.871058174118634 0.016279714002345402 -2.870079448608096 L 0.016452430268910856 -2.8699067323415304 L 0.017488727868304133 -2.868870434742137 C 0.018438667334414682 -2.8678629231871717 0.019187104489532092 -2.866855411632206 0.01993554164464939 -2.865934258210523 L 0.020827909021904678 -2.8647540303889913 L 0.02114455551060812 -2.86429345367815 C 0.0234474390648155 -2.86095427252455 0.025174601730470925 -2.857269658837818 0.026297257463146928 -2.853412328884521 C 0.026671476040705522 -2.852116956885279 0.02701690857383665 -2.8508215848860377 0.027333555062540094 -2.8494974268423685 L 0.027477485284678194 -2.8488641338649616 C 0.028551149915670093 -2.844532195341386 0.02659432667303574 -2.8400173561731394 0.02269900190969809 -2.8378390788491945 C 0.004998161927227018 -2.8278724345038992 -0.011749015465539303 -2.816299730218104 -0.027331143305454386 -2.803267039491658" fill="#72237a" transform="matrix(1,0,0,1,0,0)" fill-rule="nonzero"></path></g><g clip-path="url(#a50190b41-212e-46ac-83eb-433207b110ec7f24ab42-8133-41ff-9bb6-8ac5d1dfea34)"><path d=" M -0.7170159817460983 -3.4178490880207177 C -0.7105103357054627 -3.427952989614802 -0.6994852806896955 -3.433998058944596 -0.6873951420301074 -3.433998058944596 C -0.47884025015221343 -3.43048616152443 -0.35880244488916047 -3.3297637920722907 -0.29481106812662655 -3.245881258610291 C -0.22549427314498832 -3.1549461442635325 -0.2062076233785025 -3.066026053026705 -0.20543040017895764 -3.062312653295546 C -0.20326739866614096 -3.051937190613441 -0.20588580315208616 -3.0411390888365606 -0.21256095903246985 -3.032906768666355 C -0.21923611491285333 -3.0246744484961496 -0.22926001760853076 -3.0198810761150927 -0.23985850931435598 -3.01985323776485 C -0.25629534068251036 -3.01985323776485 -0.2707459349851608 -3.0315691578468793 -0.2742002603164717 -3.0476029845930475 C -0.2743729765830373 -3.04840899383702 -0.29236425435028135 -3.1267070346800665 -0.3507135664050076 -3.203220340768602 C -0.42028943578649414 -3.294414529515209 -0.516348466041364 -3.347323279173121 -0.6363574852599894 -3.36047850147653 C -0.6319421609551794 -3.343079243382179 -0.6291380809652386 -3.325310434098843 -0.6279807463315605 -3.3073970355520528 C -0.6065639292774331 -3.315457127991778 -0.5837078100019262 -3.3195159602560684 -0.5599593233491638 -3.3195159602560684 C -0.5210118052386337 -3.3195159602560684 -0.4804522686401585 -3.308749979640149 -0.4394609413752695 -3.2874770928081603 C -0.4311129884912682 -3.2831591861440215 -0.4249815610281914 -3.2758475308594135 -0.4221605286742875 -3.2668950710424327 C -0.4178424660574113 -3.253346682847247 -0.42212062407016976 -3.238531507913817 -0.4329964115214205 -3.229370627237488 C -0.44387219897267116 -3.2202097465611588 -0.45919889489036797 -3.218511383662153 -0.47181645531188127 -3.2250689484891435 C -0.5034811041822309 -3.2414769938128702 -0.533015585764939 -3.249796160652444 -0.5595851047716051 -3.249796160652444 C -0.5904149583535547 -3.249796160652444 -0.6181934912261796 -3.239030180036525 -0.6444463637441422 -3.21686492582728 C -0.6509618078252728 -3.211663280210723 -0.6590813487890519 -3.2088855425125873 -0.6674176271973596 -3.2090063356985477 C -0.674211133682271 -3.2090063356985477 -0.6805440634563409 -3.2107334983642035 -0.6856967654088797 -3.2139575353400938 C -0.6986672653696762 -3.2219954834491973 -0.7049430309897871 -3.2375044255753345 -0.701212443355351 -3.2523005465176444 C -0.7010685131332131 -3.252933839495051 -0.6868194211415557 -3.315860132613764 -0.7191749350781675 -3.3837088393295955 C -0.7244427812084167 -3.3947626803897903 -0.7236367719644441 -3.407514898071213 -0.7170159817460983 -3.4178490880207177" fill="#72237a" transform="matrix(1,0,0,1,0,0)" fill-rule="nonzero"></path></g><g clip-path="url(#a50190b41-212e-46ac-83eb-433207b110ec7f24ab42-8133-41ff-9bb6-8ac5d1dfea34)"><path d=" M -0.09535256628785116 -2.283247146907233 L -0.11705724378625448 -2.283247146907233 C -0.12210022950755894 -2.2832423718826766 -0.12634616502679097 -2.2870179122131886 -0.12693085702491802 -2.2920268904576484 C -0.12765050813560774 -2.2981871039651525 -0.128830735957139 -2.3041170291172364 -0.13044275444508413 -2.3097015217361885 C -0.1342425123095261 -2.322971888217308 -0.13015489400080826 -2.336789189542552 -0.1197919180068755 -2.34577043540396 C -0.11732012453477436 -2.347896092445613 -0.11396451766718863 -2.34867751606979 -0.11080793694228086 -2.3478625443189953 C -0.10765135621737298 -2.3470475725682007 -0.10509343140868577 -2.3447393825839686 -0.1039595935717007 -2.3416828170952417 C -0.09838880606287426 -2.3266732552001326 -0.09246684881475564 -2.31179637718622 -0.08619860415987646 -2.297064448232475 C -0.08489324900438255 -2.2939945515863847 -0.08521635906551173 -2.2904743676507078 -0.08705875274795605 -2.2876933960545656 C -0.08890114643040026 -2.2849124244584234 -0.09201667162803595 -2.2832422155506817 -0.09535256628785116 -2.283247146907233" fill="#72237a" transform="matrix(1,0,0,1,0,0)" fill-rule="nonzero"></path></g><g clip-path="url(#a50190b41-212e-46ac-83eb-433207b110ec7f24ab42-8133-41ff-9bb6-8ac5d1dfea34)"><path d=" M -0.5175286938628952 -2.6248511361294513 C -0.5322139030225437 -2.6436103399721533 -0.5431678584016733 -2.6650101279117555 -0.5497978496662244 -2.6878925734258745 C -0.5634214299694343 -2.734948992161276 -0.5576584290725459 -2.7854996313233706 -0.5337928089644839 -2.828282112099234 C -0.510204754143263 -2.8712295732680713 -0.47040911622467296 -2.902949982757752 -0.4232831844069635 -2.9163674080476616 C -0.40693014613132134 -2.9209788199717686 -0.3900134126175221 -2.923284766464486 -0.37302275083639014 -2.923218486621428 C -0.3487273293395038 -2.923218486621428 -0.3246909822424656 -2.918727863690724 -0.30330295123276574 -2.9101496224513017 C -0.2790854724817436 -2.9434387516974585 -0.24446463527166 -2.9677077762601733 -0.20491225137926128 -2.979120984899809 C -0.18855967415813912 -2.9837346120690977 -0.17164262826663512 -2.98604060114251 -0.15465181780868786 -2.985972063473575 C -0.13079626020234214 -2.9860451030109685 -0.10714160713105181 -2.9816110763824115 -0.08493201820506313 -2.9729031993034494 C -0.0606975046485283 -3.0061689115768786 -0.026081983259780173 -3.030424082356882 0.01345868164844144 -3.041845775707529 C 0.030097015327588905 -3.046624259082509 0.04722471176200527 -3.0490422868144265 0.06440998028527689 -3.0490422868144265 C 0.10616752567647603 -3.0488868135254528 0.14664916391126237 -3.0346355728038605 0.17929508359579105 -3.0085978943936613 C 0.18349165212782925 -3.005280204663511 0.1843062173846286 -2.9992346031482033 0.1811373904391569 -2.9949245232905564 C 0.1710184120891437 -2.9812196738751435 0.16544198874797444 -2.9646917187736994 0.1651899218262718 -2.9476578383404526 C 0.16516752626863063 -2.94357311101162 0.1626392598194666 -2.9399212918801085 0.15882379292578708 -2.9384626242362812 C 0.15500832603210735 -2.937003956592454 0.15068871112520843 -2.9380378043875064 0.14794708121414502 -2.941065834166534 C 0.12642098337291574 -2.9644045039393774 0.09615972577320697 -2.9777415640599934 0.06440998028527689 -2.9778831849894223 C 0.019812437380735903 -2.977906287220253 -0.020650335474819093 -2.9517649246402224 -0.038960705254201144 -2.9110995619174123 C -0.04324949880143547 -2.901579906566053 -0.05150632079244377 -2.8944269032605057 -0.06154006783314503 -2.8915387362946463 C -0.07157381487384662 -2.888650569328787 -0.08236992457377912 -2.8903192757221907 -0.09106344566814017 -2.8961020327706377 C -0.11877496003599308 -2.91460657034617 -0.15323371203519243 -2.919956523284921 -0.1852513830352167 -2.9107253433398537 C -0.21727409104270912 -2.901528607977755 -0.24363337338354035 -2.8787168808081938 -0.25733163828190364 -2.8483459850652646 C -0.2630571942264901 -2.835683155455734 -0.275646219378121 -2.8275267271850173 -0.2895432219963775 -2.8274761028552615 C -0.29665337496999233 -2.8274761028552615 -0.3037347418991797 -2.8295774840984755 -0.3094631647402702 -2.8333772419629177 C -0.3371821044301411 -2.8518644604675547 -0.3716371110392898 -2.8572033016505736 -0.4036511021073467 -2.847971766487706 C -0.43261002051914393 -2.8397172339147545 -0.45706256179496113 -2.820219467852943 -0.471557380912033 -2.793825216919408 C -0.4862290105382707 -2.7675263573496363 -0.4897738278947471 -2.7364521981838 -0.481402208106269 -2.707524655725491 C -0.47401913797439565 -2.6819055298821346 -0.45787026397849523 -2.6596944602852495 -0.4357763276885379 -2.644771078873344 C -0.4344233836004411 -2.643907497540516 -0.4331855836900547 -2.6429575580744054 -0.4316023512465372 -2.6416621860751643 C -0.4043755584351118 -2.6250892103932233 -0.3714699444429888 -2.6206238956219394 -0.3408111671219163 -2.6293417590601553 C -0.311728305785573 -2.637632809314777 -0.2871464043351274 -2.6571678762229287 -0.2725015418451616 -2.683626945376692 C -0.2578566793551958 -2.7100860145304555 -0.2543554786860031 -2.7412890642515872 -0.26277220067871815 -2.7703358046664945 C -0.26580456145993253 -2.7809484661796646 -0.2636842677976316 -2.7923689642645355 -0.2570446584347213 -2.801185958299269 C -0.250405049071811 -2.8100029523340027 -0.2400147524205234 -2.815195750926205 -0.22897738452072675 -2.8152132479291083 C -0.2133753484409726 -2.8152132479291083 -0.19950047502687407 -2.804735127757465 -0.1951825683627354 -2.7897375986106905 C -0.18627667423217098 -2.7587585557879635 -0.1856414888036374 -2.7259869575845617 -0.19334026151936956 -2.694686079910786 L -0.19121009423172797 -2.693908856711241 C -0.17309664407116598 -2.68762074602316 -0.15368291758090225 -2.686035952023955 -0.13478944715365027 -2.6893030896028263 C -0.13123959135668595 -2.6898784662650064 -0.12765219004599382 -2.688518106134958 -0.12537641062582816 -2.6857336200938056 C -0.12309942083472525 -2.682945803409306 -0.12252542294202551 -2.679137548159664 -0.12387953631559345 -2.6758024347662865 C -0.13041893119993297 -2.6593609059867394 -0.13565494828476576 -2.6424304757436863 -0.1395391444842028 -2.6251677826181545 C -0.14054953533807235 -2.620733782462321 -0.14443496466380545 -2.617547256582375 -0.14898096705645247 -2.617424336667133 C -0.17430625040482095 -2.6167800424857877 -0.1994946594113003 -2.6213357057249995 -0.22298988727978808 -2.6308098473259625 C -0.24718688712829334 -2.5974689931982735 -0.2818256202712159 -2.5731641318909118 -0.32140937317772034 -2.5617521267441723 C -0.36735192800855243 -2.548834927469713 -0.4164994974100787 -2.5540381816726 -0.4587188050973275 -2.576289079180106 C -0.5112375355631984 -2.553740019847978 -0.5387637945140892 -2.4956276578315295 -0.5229404702152822 -2.440706809926154 C -0.5088491392690486 -2.392164248466498 -0.4644737795565245 -2.35869817311953 -0.41392771996799654 -2.3584938670409548 C -0.40552219499514014 -2.3584938670409548 -0.3970878839778561 -2.3594725925514934 -0.38885507527156515 -2.361314899394859 C -0.38750213118346843 -2.3616315458835624 -0.3861491870953716 -2.361861834238983 -0.38436445234086103 -2.3620345505055482 L -0.38404780585215753 -2.3620921225944036 L -0.3823494292309296 -2.3625239132608176 C -0.36484751421895456 -2.3675902570800735 -0.3492454781392004 -2.3763987866749163 -0.336061469791364 -2.3887479997343526 C -0.32529548917544504 -2.398823115284009 -0.3166021037583127 -2.4108844678991703 -0.3102403879398151 -2.4246441971355583 L -0.30929044847370474 -2.4266592202454897 L -0.3091753042959943 -2.426831936512055 C -0.29875475621320646 -2.4509258556979487 -0.2970275935475511 -2.4781286676820216 -0.3043104627877315 -2.503517958867157 C -0.3069012067862147 -2.5125279907729925 -0.30583612314239383 -2.5220273854340975 -0.3012879281228344 -2.5302601941403884 C -0.2951279000560952 -2.5414866774979776 -0.2833210136472575 -2.548444898674374 -0.2705156466297402 -2.5483954021297706 C -0.2549423965944136 -2.5483954021297706 -0.24106752318031494 -2.5379172819581273 -0.23674961651617626 -2.522948538855781 C -0.22779684289061186 -2.49196896044222 -0.22714167382248263 -2.4591807266235692 -0.23484973758395522 -2.4278682341114486 C -0.22225392955986945 -2.4232125032056793 -0.2089278907029941 -2.4208436462618454 -0.19549921485143895 -2.420873225315544 C -0.18473323423552002 -2.420873225315544 -0.17413996988616665 -2.4223700996257786 -0.1640072822476547 -2.4252774901129657 C -0.15767435247358474 -2.4270910109119033 -0.1513414226995149 -2.4295666107326763 -0.1451524231475828 -2.432617931442001 C -0.14249350952425066 -2.4339361689172314 -0.1393843888376951 -2.4339961991904184 -0.13667657135875422 -2.4327815814735274 C -0.13396875387981322 -2.431566963756636 -0.13194604189825887 -2.429205000311334 -0.13116240555577385 -2.426342573756786 C -0.12678692680278003 -2.4103375330550456 -0.12186451320566205 -2.3940734179534573 -0.11659666707541294 -2.377982019118434 C -0.11501554954534143 -2.3730893055255047 -0.11740705529533968 -2.3677956079018108 -0.12212358760551034 -2.365747950236708 C -0.14529424335347174 -2.3557517038374103 -0.17026423567755566 -2.350599010246799 -0.19549921485143873 -2.3506064908677953 C -0.21916852695541633 -2.350549409183892 -0.2426230793579906 -2.3550956229676343 -0.2645569354332288 -2.3639920015266247 C -0.271512279172533 -2.354399027619647 -0.27936817504733974 -2.345492465916185 -0.28801756164171516 -2.337393696475531 C -0.30638031219470896 -2.320345942413433 -0.32799983801350674 -2.307186231045469 -0.35157714773783527 -2.2987052527648495 C -0.3519723363745738 -2.2964678787397466 -0.35231785386761305 -2.2942220150349923 -0.35261344533722844 -2.2919693183687935 C -0.35322366172855724 -2.286994076021175 -0.35744575213681407 -2.2832534520629832 -0.36245827253146445 -2.283247146907233 L -0.4141580083234173 -2.283247146907233 C -0.4174236144480824 -2.2832413782053873 -0.42048210414107545 -2.2848460083612188 -0.422333244940853 -2.287536267526944 C -0.5003434253396236 -2.2911057370359655 -0.569717792410117 -2.3458567935372425 -0.5913361117752376 -2.421074727626537 C -0.6028920665917502 -2.4615397267847046 -0.6003027409499639 -2.504735771020621 -0.5839956704462019 -2.543530560621508 C -0.5700346539572239 -2.576412998483619 -0.5469751697937317 -2.604625663170438 -0.5175286938628951 -2.6248511361294513" fill="#72237a" transform="matrix(1,0,0,1,0,0)" fill-rule="nonzero"></path></g><g clip-path="url(#a50190b41-212e-46ac-83eb-433207b110ec7f24ab42-8133-41ff-9bb6-8ac5d1dfea34)"><path d=" M 3.216280342795457 -2.3057290476051815 L 3.158880970206842 -2.3057290476051815 C 3.1555327686517085 -2.305736027092399 3.152412109002909 -2.3074248384062077 3.150574966073929 -2.3102240183263882 C 3.148737823144949 -2.3130231982465683 3.148430050982684 -2.3165581489666534 3.149755794123296 -2.3196327070637075 L 3.1809598662828042 -2.3917417483548222 C 3.211185212931774 -2.4616054781805845 3.193107577031247 -2.4973865314040795 3.161097495627766 -2.5499498485288603 C 3.096904616554239 -2.65545070135598 3.1071236623260337 -2.6895333779582473 3.156290226208358 -2.8032094674028025 L 3.264928757878086 -3.054310132944676 C 3.2716435919627376 -3.0698050929106806 3.2881570956955404 -3.0786226357275464 3.304768643365871 -3.0755830197766656 L 3.3185859446911143 -3.107535529091291 C 3.305067601838868 -3.117614546657258 3.3002127666607164 -3.1356416919878933 3.3068412385646573 -3.1511463863990907 L 3.308827475630161 -3.155752153507505 L 3.1747996527752997 -3.2137560330291004 L 3.172784629665368 -3.2091502659206856 C 3.166090481141068 -3.193648458288961 3.1495845171620838 -3.1848166337448927 3.13297353022201 -3.1878485930442686 L 3.1191274428523386 -3.155896083729643 C 3.132541739555596 -3.14602247049098 3.137608083374852 -3.127800904368315 3.1309009350232238 -3.1122852264218435 L 3.022262403353497 -2.861213346924398 C 2.9730670534267443 -2.7475372574798422 2.955219705881638 -2.716764975986748 2.834375891374613 -2.691318112712758 C 2.774126700387666 -2.678652253164618 2.7356685450324045 -2.667339337704575 2.705471984427862 -2.5974756078788124 L 2.5818359236113606 -2.3117165448461203 C 2.580255764904633 -2.3080834526356995 2.5766725967968034 -2.305732351795231 2.5727107475278137 -2.3057290476051815 L 2.5183339096040953 -2.3057290476051815 C 2.515383489760892 -2.3057046387538334 2.5125767651104773 -2.307000989732224 2.5106824129528116 -2.3092630690734364 C 2.5087880607951467 -2.3115251484146486 2.5080046211396585 -2.3145158759897764 2.5085466544987147 -2.317416181642783 L 2.5106768217863564 -2.3293623900802336 C 2.5108097369759044 -2.3301153689062453 2.5110320002568542 -2.33084980409547 2.511338900808191 -2.3315501294567307 L 2.6388610776224173 -2.6262904383508303 C 2.6855232556395414 -2.734151746821013 2.7629001430609055 -2.7504446479670293 2.8194359343166937 -2.7623332843156243 C 2.908528741820086 -2.781101785282413 2.9112058439518522 -2.7872332127454897 2.955651496548052 -2.890028177396416 L 3.050271224581542 -3.108658184823967 C 3.036733330877243 -3.1187229966098653 3.031864302734226 -3.1367586387533146 3.038497732410658 -3.152269042131767 L 3.08041021309723 -3.249134081630609 C 3.087125047181882 -3.2646290415966144 3.1036385509146847 -3.2734465844134792 3.1202500985850152 -3.2704069684625985 L 3.1226105542280775 -3.2758763169038407 C 3.126430691639145 -3.2847064619994573 3.1336026389655744 -3.291657039594739 3.142548177358802 -3.2951985442332163 C 3.1514937157520304 -3.298740048871694 3.161479829465759 -3.2985822824063726 3.1703090298445957 -3.2947599620483405 L 3.3709477595049018 -3.2079412520547272 C 3.379842647233027 -3.2041127081458574 3.3866937258067944 -3.19703134121667 3.390263195315815 -3.1880213093108343 C 3.3938373532235495 -3.179076176544343 3.3936818556727415 -3.16907250077572 3.389831404649401 -3.160242776438209 L 3.387470949006339 -3.1548022140413945 C 3.4008852457095955 -3.144899814758303 3.4059515895288524 -3.1266782486356384 3.399215655132796 -3.1111625706891672 L 3.3573319604906517 -3.0143263172347523 C 3.3506352759705216 -2.998812390641641 3.3341127227754583 -2.9899780775171116 3.317492075002866 -2.9930246443583353 L 3.2228723469693756 -2.774337064841929 C 3.178426694373176 -2.671599672279858 3.1757783782858375 -2.6654682448167817 3.2231314213692244 -2.5876307806845764 C 3.2531264796627735 -2.538291500535686 3.294204165060945 -2.4707306542641305 3.247541987043821 -2.362926917882804 L 3.225405518879003 -2.3117165448461203 C 3.2238253601722757 -2.3080834526356995 3.2202421920644477 -2.305732351795231 3.216280342795457 -2.3057290476051815" fill="#a6262c" transform="matrix(1,0,0,1,0,0)" fill-rule="nonzero"></path></g><g clip-path="url(#a50190b41-212e-46ac-83eb-433207b110ec7f24ab42-8133-41ff-9bb6-8ac5d1dfea34)"><path d=" M 2.830029198666047 -2.652370594602228 L 2.883657599434648 -2.66189877530776 C 2.9033950823228496 -2.665396355843728 2.9222308228296034 -2.652231313813179 2.9257284033655715 -2.6324938309249766 C 2.9292259839015395 -2.6127563480367737 2.91606094187099 -2.5939206075300207 2.8963234589827875 -2.5904230269940527 L 2.8427238442586136 -2.580923632332948 C 2.829338333599784 -2.5785343906454576 2.816701260096072 -2.576289079180106 2.79917055903967 -2.5357295425816306 L 2.702247947451972 -2.3117165448461203 C 2.7006677887452444 -2.3080834526356995 2.6970846206374155 -2.3057323517952315 2.693122771368425 -2.3057290476051815 L 2.6408761007323482 -2.3057290476051815 C 2.636148357006382 -2.3057322293704567 2.63207826199638 -2.309067780606464 2.631146417715823 -2.313702781911624 C 2.6296495434055878 -2.321014437196232 2.630426766605133 -2.328470022702978 2.6333917291811746 -2.335292315232317 L 2.7325884382786523 -2.564544373053649 C 2.761691129194946 -2.6318173588809284 2.798163047484704 -2.646699743849992 2.830029198666047 -2.652370594602228" fill="#a6262c" transform="matrix(1,0,0,1,0,0)" fill-rule="nonzero"></path></g><g clip-path="url(#a50190b41-212e-46ac-83eb-433207b110ec7f24ab42-8133-41ff-9bb6-8ac5d1dfea34)"><path d=" M 2.4971761669498154 -3.0668608483151054 C 2.5297907552862755 -2.9958744627566674 2.5390598615919604 -2.908336101652364 2.5232563232012133 -2.820365949881647 L 2.4373587666292824 -2.341538886873104 C 2.4372085064589486 -2.340790154978956 2.436986798882341 -2.3400575560301653 2.436696687607448 -2.339351147496607 L 2.4298743950781088 -2.323605181194715 C 2.4282882772981385 -2.319977114904932 2.424708829908597 -2.31762845541905 2.4207492189945627 -2.3176176839537765 L 2.3647891486273265 -2.3176176839537765 C 2.361680631111539 -2.31760131827585 2.3587448391279286 -2.3190456032689717 2.356860746605091 -2.321518121084228 C 2.354976654082252 -2.3239906388994838 2.3543629570097186 -2.3272043920971566 2.3552033958329393 -2.330197185368634 L 2.401491355272505 -2.5881201434398458 C 2.3546276749443873 -2.5455743697758666 2.3018916415530404 -2.5231500411667733 2.24837838496215 -2.5231500411667733 C 2.2371518276353894 -2.5231500411667733 2.2258676982197745 -2.5241575527217393 2.2148426432040065 -2.5261150037428153 C 2.151052768752466 -2.537571849424997 2.09687743313974 -2.5811539206883687 2.0614130264049484 -2.649290487848476 L 2.0228685129164052 -2.4345753824630774 C 2.0220468278478805 -2.429869240585748 2.017973665419822 -2.4264264485334595 2.0131964019887345 -2.4264001458456415 C 2.008408423215572 -2.4263274442993383 2.00425847037791 -2.429700797775567 2.0033515747944985 -2.4344026661965117 L 1.9718596421907144 -2.5927546965926878 C 1.9716200435389697 -2.5939800206007746 1.9716102824189135 -2.595239205088015 1.9718308561462867 -2.5964680963238473 L 2.0279636427800884 -2.9092860411184747 C 2.0583617056956243 -3.0787494846637005 2.176557204115311 -3.206530735877775 2.302841581019151 -3.206530735877775 C 2.3140969243903395 -3.206530735877775 2.3253810538059554 -3.2055232243228096 2.3364061088217225 -3.203536987257306 C 2.405262327092519 -3.1911877741978696 2.462345053192431 -3.1426545032929516 2.4971761669498154 -3.0668608483151054 M 2.3224736633187684 -3.125929811480521 C 2.316025589366988 -3.127081253257625 2.309404799148642 -3.1276857601906043 2.302841581019151 -3.1276857601906043 C 2.2613321049545654 -3.1276857601906043 2.218239396446462 -3.104167561893263 2.181450831668002 -3.061449071962718 C 2.143913829734423 -3.0178382146549185 2.116970092150199 -2.9588556096227854 2.105570818556873 -2.8953535956155205 C 2.0931640334085815 -2.8262383029448754 2.099756037582499 -2.757209368407513 2.124080245123814 -2.7009614375960007 C 2.147828731776576 -2.6461240229614407 2.1850203011770226 -2.6115807696483317 2.2287750887069606 -2.6037221795196 C 2.235223162658741 -2.602570737742496 2.2418151668326596 -2.6019950168539445 2.24837838496215 -2.6019950168539445 C 2.2898878610267355 -2.6019950168539445 2.332980569534839 -2.625513215151286 2.3697691343133 -2.6682317050818307 C 2.407306136246878 -2.7118425623896303 2.43427865987553 -2.770825167421764 2.445677933468856 -2.8343271814290283 C 2.4586316534612713 -2.906580152942281 2.451463928398802 -2.977451394323009 2.4255277023695427 -3.033929613489942 C 2.4017792157167808 -3.085600563237467 2.3651921532493123 -3.1182727236627823 2.3224736633187684 -3.1259298114805216" fill="#ed1c24" transform="matrix(1,0,0,1,0,0)" fill-rule="nonzero"></path></g></g></g><defs><clipPath id="SvgjsClipPath1002"><path d=" M -0.7226229574287764 -4.316325634364512 h 4.124807688295053 v 4.051325634364512 h -4.124807688295053 Z"></path></clipPath><clipPath id="a50190b41-212e-46ac-83eb-433207b110ec7f24ab42-8133-41ff-9bb6-8ac5d1dfea34"><path d=" M -0.7226292604094784 -0.2649999999999988 L 3.4021806177088374 -0.2649999999999988 L 3.4021806177088374 -4.316319106694677 L -0.7226292604094784 -4.316319106694677 Z"></path></clipPath></defs></svg>